0
SECTION
2
HEADER
9
$INSUNITS
70
5
9
$ACADVER
1
AC1014
9
$HANDSEED
5
FFFF
0
ENDSEC
0
SECTION
2
TABLES
0
TABLE
2
VPORT
5
8
100
AcDbSymbolTable
0
ENDTAB
0
TABLE
2
LTYPE
5
5
100
AcDbSymbolTable
0
LTYPE
5
14
100
AcDbSymbolTableRecord
100
AcDbLinetypeTableRecord
2
BYBLOCK
70
0
0
LTYPE
5
15
100
AcDbSymbolTableRecord
100
AcDbLinetypeTableRecord
2
BYLAYER
70
0
0
ENDTAB
0
TABLE
2
LAYER
5
2
100
AcDbSymbolTable
70
2
0
LAYER
5
50
100
AcDbSymbolTableRecord
100
AcDbLayerTableRecord
2
0
70
0
6
CONTINUOUS
0
ENDTAB
0
TABLE
2
STYLE
5
3
100
AcDbSymbolTable
70
1
0
STYLE
5
11
100
AcDbSymbolTableRecord
100
AcDbTextStyleTableRecord
2
STANDARD
70
0
0
ENDTAB
0
TABLE
2
VIEW
5
6
100
AcDbSymbolTable
70
0
0
ENDTAB
0
TABLE
2
UCS
5
7
100
AcDbSymbolTable
70
0
0
ENDTAB
0
TABLE
2
APPID
5
9
100
AcDbSymbolTable
70
2
0
APPID
5
12
100
AcDbSymbolTableRecord
100
AcDbRegAppTableRecord
2
ACAD
70
0
0
ENDTAB
0
TABLE
2
DIMSTYLE
5
A
100
AcDbSymbolTable
70
1
0
ENDTAB
0
TABLE
2
BLOCK_RECORD
5
1
100
AcDbSymbolTable
70
1
0
BLOCK_RECORD
5
1F
100
AcDbSymbolTableRecord
100
AcDbBlockTableRecord
2
*MODEL_SPACE
0
BLOCK_RECORD
5
1B
100
AcDbSymbolTableRecord
100
AcDbBlockTableRecord
2
*PAPER_SPACE
0
ENDTAB
0
ENDSEC
0
SECTION
2
BLOCKS
0
BLOCK
5
20
100
AcDbEntity
100
AcDbBlockBegin
2
*MODEL_SPACE
0
ENDBLK
5
21
100
AcDbEntity
100
AcDbBlockEnd
0
BLOCK
5
1C
100
AcDbEntity
100
AcDbBlockBegin
2
*PAPER_SPACE
0
ENDBLK
5
1D
100
AcDbEntity
100
AcDbBlockEnd
0
ENDSEC
0
SECTION
2
ENTITIES
0
LINE
5
100
100
AcDbEntity
8
0
100
AcDbLine
10
1.8660254037844739
20
-1.5000000000000018
30
0
11
3.0000000447034836
21
-1.5000000027606579
31
0
0
LINE
5
101
100
AcDbEntity
8
0
100
AcDbLine
10
3.0000000447034836
20
-1.5000000027606579
30
0
11
3.0000000447034836
21
-2.0000000298023224
31
0
0
LINE
5
102
100
AcDbEntity
8
0
100
AcDbLine
10
5.0000000447034836
20
-1.5000000027606579
30
0
11
6.5000000968575478
21
-1.5000000027606579
31
0
0
LINE
5
103
100
AcDbEntity
8
0
100
AcDbLine
10
6.5000000968575478
20
-1.5000000027606579
30
0
11
6.5000000968575478
21
-2.0000000298023224
31
0
0
LINE
5
104
100
AcDbEntity
8
0
100
AcDbLine
10
5.0000000447034836
20
-2.0000000027606575
30
0
11
5.0000000447034836
21
-1.5000000027606579
31
0
0
LINE
5
105
100
AcDbEntity
8
0
100
AcDbLine
10
0.8659838793843404
20
-1.500071916849407
30
0
11
0.86602542122710824
21
-1.5000000027606581
31
0
0
LINE
5
106
100
AcDbEntity
8
0
100
AcDbLine
10
11.000000156462193
20
-2.0000000298023224
30
0
11
12.100000156462192
21
-2.0000000298023224
31
0
0
LINE
5
107
100
AcDbEntity
8
0
100
AcDbLine
10
12.500000156462193
20
-1.6000000298023225
30
0
11
12.500000156462193
21
-0.5000000074505806
31
0
0
ARC
5
108
100
AcDbEntity
8
0
100
AcDbCircle
10
12.10000015646219
20
-1.6000000298023203
30
0
40
0.40000000000000213
210
-0
220
0
230
1
100
AcDbArc
50
270.00000000000023
51
360
0
LINE
5
109
100
AcDbEntity
8
0
100
AcDbLine
10
11.000000156462193
20
-1.5000000027606579
30
0
11
11.000000156462193
21
-2.0000000298023224
31
0
0
LINE
5
110
100
AcDbEntity
8
0
100
AcDbLine
10
10.999829023384773
20
1.9999999972393439
30
0
11
10.999829023384775
21
1.4999999972393421
31
0
0
LINE
5
111
100
AcDbEntity
8
0
100
AcDbLine
10
12.10102495974459
20
1.9999999972393434
30
0
11
10.999829023384773
21
1.9999999972393439
31
0
0
ARC
5
112
100
AcDbEntity
8
0
100
AcDbCircle
10
12.10102495974459
20
1.6011959112474279
30
0
40
0.39880408599191419
210
-0
220
0
230
1
100
AcDbArc
50
0
51
90
0
LINE
5
113
100
AcDbEntity
8
0
100
AcDbLine
10
12.499829045736504
20
0.49999999723934213
30
0
11
12.499829045736504
21
1.6011959112474277
31
0
0
LINE
5
114
100
AcDbEntity
8
0
100
AcDbLine
10
3.0000000447034836
20
-2.0000000298023224
30
0
11
5.0000000447034836
21
-2.0000000027606575
31
0
0
LINE
5
115
100
AcDbEntity
8
0
100
AcDbLine
10
6.5000000968575478
20
-2.0000000298023224
30
0
11
8.5001970968575478
21
-2.0000000298023224
31
0
0
LINE
5
116
100
AcDbEntity
8
0
100
AcDbLine
10
11.000000156462193
20
-1.5000000027606579
30
0
11
11.000000156462193
21
-2.0000000298023224
31
0
0
LINE
5
117
100
AcDbEntity
8
0
100
AcDbLine
10
8.5001970968575478
20
-2.0000000298023224
30
0
11
8.5001970968575478
21
-1.5000000027606579
31
0
0
LINE
5
118
100
AcDbEntity
8
0
100
AcDbLine
10
3.0000000447034836
20
-1.5000000027606579
30
0
11
1.8660254037844739
21
-1.5000000000000018
31
0
0
LINE
5
119
100
AcDbEntity
8
0
100
AcDbLine
10
6.5000000968575478
20
-1.5000000027606579
30
0
11
5.0000000447034836
21
-1.5000000027606579
31
0
0
LINE
5
120
100
AcDbEntity
8
0
100
AcDbLine
10
4.9877943828839433
20
1.4999999972393421
30
0
11
4.9877943828839433
21
1.9999999972393419
31
0
0
LINE
5
121
100
AcDbEntity
8
0
100
AcDbLine
10
4.9877943828839433
20
1.9999999972393419
30
0
11
2.9877943828839433
21
1.9999999972393419
31
0
0
LINE
5
122
100
AcDbEntity
8
0
100
AcDbLine
10
2.9877943828839433
20
1.9999999972393419
30
0
11
2.9877943828839433
21
1.4999999972393421
31
0
0
LINE
5
123
100
AcDbEntity
8
0
100
AcDbLine
10
8.5000000968575478
20
1.4999999972393421
30
0
11
8.5000000968575478
21
2.0000000298023224
31
0
0
LINE
5
124
100
AcDbEntity
8
0
100
AcDbLine
10
8.5000000968575478
20
2.0000000298023224
30
0
11
6.5000000968575478
21
2.0000000298023224
31
0
0
LINE
5
125
100
AcDbEntity
8
0
100
AcDbLine
10
6.5000000968575478
20
2.0000000298023224
30
0
11
6.5000000968575478
21
1.4999999972393421
31
0
0
LINE
5
126
100
AcDbEntity
8
0
100
AcDbLine
10
4.9877943828839433
20
1.4999999972393421
30
0
11
6.5000000968575478
21
1.4999999972393421
31
0
0
LINE
5
127
100
AcDbEntity
8
0
100
AcDbLine
10
1.8658916073615177
20
1.4997682991280981
30
0
11
1.865757884112186
21
1.4999999972393421
31
0
0
LINE
5
128
100
AcDbEntity
8
0
100
AcDbLine
10
1.865757884112186
20
1.4999999972393421
30
0
11
2.9877943828839433
21
1.4999999972393421
31
0
0
LINE
5
129
100
AcDbEntity
8
0
100
AcDbLine
10
0.86602541196835481
20
-1.4999999803037245
30
0
11
0.8659838793843404
21
-1.500071916849407
31
0
0
LINE
5
130
100
AcDbEntity
8
0
100
AcDbLine
10
1.8660254037844739
20
-1.5000000000000018
30
0
11
3.0000000447034836
21
-1.5000000027606579
31
0
0
LINE
5
131
100
AcDbEntity
8
0
100
AcDbLine
10
3.0000000447034836
20
-1.5000000027606579
30
0
11
1.8660254037844739
21
-1.5000000000000018
31
0
0
LINE
5
132
100
AcDbEntity
8
0
100
AcDbLine
10
1.8658916073615177
20
1.4997682991280981
30
0
11
1.865757884112186
21
1.4999999972393421
31
0
0
LINE
5
133
100
AcDbEntity
8
0
100
AcDbLine
10
4.9877943828839433
20
1.4999999972393421
30
0
11
6.5000000968575478
21
1.4999999972393421
31
0
0
LINE
5
134
100
AcDbEntity
8
0
100
AcDbLine
10
4.9877943828839433
20
1.9999999972393419
30
0
11
2.9877943828839433
21
1.9999999972393419
31
0
0
LINE
5
135
100
AcDbEntity
8
0
100
AcDbLine
10
6.5000000968575478
20
-1.5000000027606579
30
0
11
5.0000000447034747
21
-1.5000000838856584
31
0
0
LINE
5
136
100
AcDbEntity
8
0
100
AcDbLine
10
11.000000156462193
20
-1.5000000027606579
30
0
11
11.000000156462193
21
-2.0000000298023224
31
0
0
LINE
5
137
100
AcDbEntity
8
0
100
AcDbLine
10
12.500000156462193
20
-1.6000000298023225
30
0
11
12.500000156462193
21
-0.5000000074505806
31
0
0
LINE
5
138
100
AcDbEntity
8
0
100
AcDbLine
10
2.9999999635784849
20
-2.0000000298023224
30
0
11
4.9999999094951537
21
-2.0000001379689798
31
0
0
ARC
5
139
100
AcDbEntity
8
0
100
AcDbCircle
10
12.10000015646219
20
-1.6000000298023203
30
0
40
0.40000000000000213
210
-0
220
0
230
1
100
AcDbArc
50
270.00000000000023
51
360
0
LINE
5
140
100
AcDbEntity
8
0
100
AcDbLine
10
8.5001970968575478
20
-2.0000000298023224
30
0
11
8.5001970968575478
21
-1.5000000027606579
31
0
0
LINE
5
141
100
AcDbEntity
8
0
100
AcDbLine
10
11.000000156462193
20
-2.0000000298023224
30
0
11
12.100000156462192
21
-2.0000000298023224
31
0
0
LINE
5
142
100
AcDbEntity
8
0
100
AcDbLine
10
4.9999999094951537
20
-2.0000001379689798
30
0
11
5.0000000447034747
21
-1.5000000838856584
31
0
0
LINE
5
143
100
AcDbEntity
8
0
100
AcDbLine
10
6.5000000968575478
20
-1.5000000027606579
30
0
11
6.5000000968575478
21
-2.0000000298023224
31
0
0
LINE
5
144
100
AcDbEntity
8
0
100
AcDbLine
10
3.0000000447034836
20
-1.5000000027606579
30
0
11
2.9999999635784849
21
-2.0000000298023224
31
0
0
LINE
5
145
100
AcDbEntity
8
0
100
AcDbLine
10
5.0000000447034747
20
-1.5000000838856584
30
0
11
6.5000000968575478
21
-1.5000000027606579
31
0
0
LINE
5
146
100
AcDbEntity
8
0
100
AcDbLine
10
12.10102495974459
20
1.9999999972393434
30
0
11
10.999829023384773
21
1.9999999972393439
31
0
0
LINE
5
147
100
AcDbEntity
8
0
100
AcDbLine
10
2.9877943828839433
20
1.9999999972393419
30
0
11
2.9877943828839433
21
1.4999999972393421
31
0
0
LINE
5
148
100
AcDbEntity
8
0
100
AcDbLine
10
10.999829023384773
20
1.9999999972393439
30
0
11
10.999829023384775
21
1.4999999972393421
31
0
0
LINE
5
149
100
AcDbEntity
8
0
100
AcDbLine
10
11.000000156462193
20
-1.5000000027606579
30
0
11
11.000000156462193
21
-2.0000000298023224
31
0
0
LINE
5
150
100
AcDbEntity
8
0
100
AcDbLine
10
4.9877943828839433
20
1.4999999972393421
30
0
11
4.9877943828839433
21
1.9999999972393419
31
0
0
LINE
5
151
100
AcDbEntity
8
0
100
AcDbLine
10
8.5000000968575478
20
1.4999999972393421
30
0
11
8.5000000968575478
21
2.0000000298023224
31
0
0
LINE
5
152
100
AcDbEntity
8
0
100
AcDbLine
10
8.5000000968575478
20
2.0000000298023224
30
0
11
6.5000000968575478
21
2.0000000298023224
31
0
0
LINE
5
153
100
AcDbEntity
8
0
100
AcDbLine
10
6.5000000968575478
20
-2.0000000298023224
30
0
11
8.5001970968575478
21
-2.0000000298023224
31
0
0
ARC
5
154
100
AcDbEntity
8
0
100
AcDbCircle
10
12.10102495974459
20
1.6011959112474279
30
0
40
0.39880408599191419
210
-0
220
0
230
1
100
AcDbArc
50
0
51
90
0
LINE
5
155
100
AcDbEntity
8
0
100
AcDbLine
10
6.5000000968575478
20
2.0000000298023224
30
0
11
6.5000000968575478
21
1.4999999972393421
31
0
0
LINE
5
156
100
AcDbEntity
8
0
100
AcDbLine
10
12.499829045736504
20
0.49999999723934213
30
0
11
12.499829045736504
21
1.6011959112474277
31
0
0
LINE
5
157
100
AcDbEntity
8
0
100
AcDbLine
10
1.865757884112186
20
1.4999999972393421
30
0
11
2.9877943828839433
21
1.4999999972393421
31
0
0
LINE
5
158
100
AcDbEntity
8
0
100
AcDbLine
10
10.999829023384775
20
1.4999999972393421
30
0
11
8.5000000968575478
21
1.4999999972393421
31
0
0
LINE
5
159
100
AcDbEntity
8
0
100
AcDbLine
10
8.5001970968575478
20
-1.5000000027606579
30
0
11
11.000000156462193
21
-1.5000000027606579
31
0
0
LINE
5
160
100
AcDbEntity
8
0
100
AcDbLine
10
-2.9510604403613137
20
8.1113866244337007
30
0
11
-4.2009619701636352
21
10.276279578509389
31
0
0
LINE
5
161
100
AcDbEntity
8
0
100
AcDbLine
10
-3.7679492448526477
20
10.526279592030221
30
0
11
-4.3179492448526471
21
11.478907536193104
31
0
0
LINE
5
162
100
AcDbEntity
8
0
100
AcDbLine
10
-4.2009619701636352
20
10.276279578509389
30
0
11
-3.7679492448526477
21
10.526279592030221
31
0
0
LINE
5
163
100
AcDbEntity
8
0
100
AcDbLine
10
-4.2009619701636352
20
10.276279578509389
30
0
11
-3.7679492448526477
21
10.526279592030221
31
0
0
LINE
5
164
100
AcDbEntity
8
0
100
AcDbLine
10
-4.2009619701636352
20
10.276279578509389
30
0
11
-3.7679492448526477
21
10.526279592030221
31
0
0
LINE
5
165
100
AcDbEntity
8
0
100
AcDbLine
10
-4.8643594063664235
20
11.625317697706878
30
0
11
-5.8169873698864825
21
11.075317686531008
31
0
0
LINE
5
166
100
AcDbEntity
8
0
100
AcDbLine
10
-2.5180477150503262
20
8.3613866379545332
30
0
11
-2.9510604403613137
21
8.1113866244337007
31
0
0
LINE
5
167
100
AcDbEntity
8
0
100
AcDbLine
10
1.8658916073615177
20
1.4997682991280981
30
0
11
1.865757884112186
21
1.4999999972393421
31
0
0
LINE
5
168
100
AcDbEntity
8
0
100
AcDbLine
10
0.36602540378442328
20
2.3660254037844699
30
0
11
-0.20096191428428289
21
3.3480762514479978
31
0
0
LINE
5
169
100
AcDbEntity
8
0
100
AcDbLine
10
-2.5180478738375034
20
8.3613869129819918
30
0
11
-2.9510605991484908
21
8.1113868994611593
31
0
0
LINE
5
170
100
AcDbEntity
8
0
100
AcDbLine
10
0.23205082454753789
20
3.5980762415500598
30
0
11
-0.76794917545246166
21
5.3301270491189374
31
0
0
LINE
5
171
100
AcDbEntity
8
0
100
AcDbLine
10
-4.2009619701636352
20
10.276279578509389
30
0
11
-3.7679492448526477
21
10.526279592030221
31
0
0
LINE
5
172
100
AcDbEntity
8
0
100
AcDbLine
10
-3.7679492448526477
20
10.526279592030221
30
0
11
-4.3179492448526471
21
11.478907536193104
31
0
0
ARC
5
173
100
AcDbEntity
8
0
100
AcDbCircle
10
-4.6643594063664242
20
11.278907536193101
30
0
40
0.40000000000000291
210
0
220
-0
230
1
100
AcDbArc
50
30.00000000000022
51
119.99999999999982
0
LINE
5
174
100
AcDbEntity
8
0
100
AcDbLine
10
0.23205081102670477
20
3.5980762649688298
30
0
11
-0.76794921239206326
21
5.3301270590168741
31
0
0
LINE
5
175
100
AcDbEntity
8
0
100
AcDbLine
10
-0.20096191428428289
20
3.3480762514479978
30
0
11
0.36602540378442328
21
2.3660254037844699
31
0
0
LINE
5
176
100
AcDbEntity
8
0
100
AcDbLine
10
-4.8643594063664235
20
11.625317697706878
30
0
11
-5.8169873698864825
21
11.075317686531008
31
0
0
LINE
5
177
100
AcDbEntity
8
0
100
AcDbLine
10
-5.5490381517146306
20
6.6112160174291565
30
0
11
-5.9820508818072184
21
6.3612160011476657
31
0
0
LINE
5
178
100
AcDbEntity
8
0
100
AcDbLine
10
-3.2259479966200484
20
1.5875058382422749
30
0
11
-2.7929352947278292
21
1.8375058382422744
31
0
0
LINE
5
179
100
AcDbEntity
8
0
100
AcDbLine
10
-2.2319170453419508
20
0.86579372633258533
30
0
11
-2.7929352947278292
21
1.8375058382422744
31
0
0
LINE
5
180
100
AcDbEntity
8
0
100
AcDbLine
10
-3.2259479966200484
20
1.5875058382422749
30
0
11
-2.7929352947278292
21
1.8375058382422744
31
0
0
LINE
5
181
100
AcDbEntity
8
0
100
AcDbLine
10
-4.2259479966200484
20
3.3195566458111525
30
0
11
-3.2259479966200484
21
1.5875058382422749
31
0
0
LINE
5
182
100
AcDbEntity
8
0
100
AcDbLine
10
-7.7825632850503714
20
9.4797950283487094
30
0
11
-7.231965316870463
21
8.5261313729169164
31
0
0
LINE
5
183
100
AcDbEntity
8
0
100
AcDbLine
10
-7.7825632850503714
20
9.4797950283487094
30
0
11
-7.231965316870463
21
8.5261313729169164
31
0
0
LINE
5
184
100
AcDbEntity
8
0
100
AcDbLine
10
-4.9820508818072184
20
4.629165193578789
30
0
11
-4.5490381517146306
21
4.8791652098602789
31
0
0
ARC
5
185
100
AcDbEntity
8
0
100
AcDbCircle
10
-7.437188815448339
20
9.6791970713446673
30
0
40
0.3988040859919138
210
0
220
0
230
1
100
AcDbArc
50
119.99999999999989
51
210
0
ARC
5
186
100
AcDbEntity
8
0
100
AcDbCircle
10
-7.437188815448339
20
9.6791970713446673
30
0
40
0.3988040859919138
210
0
220
0
230
1
100
AcDbArc
50
119.99999999999989
51
210
0
LINE
5
187
100
AcDbEntity
8
0
100
AcDbLine
10
-6.7989526149782433
20
8.7761313729169181
30
0
11
-5.5490381517146306
21
6.6112160174291565
31
0
0
LINE
5
188
100
AcDbEntity
8
0
100
AcDbLine
10
-5.9820508818072184
20
6.3612160011476657
30
0
11
-4.9820508818072184
21
4.629165193578789
31
0
0
LINE
5
189
100
AcDbEntity
8
0
100
AcDbLine
10
-6.6829272223696687
20
10.575169497950741
30
0
11
-7.6365908584442952
21
10.024571540946699
31
0
0
LINE
5
190
100
AcDbEntity
8
0
100
AcDbLine
10
-3.7929352947278288
20
3.5695566458111521
30
0
11
-4.2259479966200484
21
3.3195566458111525
31
0
0
LINE
5
191
100
AcDbEntity
8
0
100
AcDbLine
10
-5.9820508818072184
20
6.3612160011476657
30
0
11
-4.9820508818072184
21
4.629165193578789
31
0
0
LINE
5
192
100
AcDbEntity
8
0
100
AcDbLine
10
-3.7929352947278288
20
3.5695566458111521
30
0
11
-4.2259479966200484
21
3.3195566458111525
31
0
0
LINE
5
193
100
AcDbEntity
8
0
100
AcDbLine
10
-2.2317832505162705
20
0.86602538311920529
30
0
11
-2.2319170453419508
21
0.86579372633258533
31
0
0
LINE
5
194
100
AcDbEntity
8
0
100
AcDbLine
10
-4.9820508818072184
20
4.629165193578789
30
0
11
-4.5490381517146306
21
4.8791652098602789
31
0
0
LINE
5
195
100
AcDbEntity
8
0
100
AcDbLine
10
-4.2259479966200484
20
3.3195566458111525
30
0
11
-3.2259479966200484
21
1.5875058382422749
31
0
0
LINE
5
196
100
AcDbEntity
8
0
100
AcDbLine
10
-5.5490381517146306
20
6.6112160174291565
30
0
11
-5.9820508818072184
21
6.3612160011476657
31
0
0
LINE
5
197
100
AcDbEntity
8
0
100
AcDbLine
10
-7.231965316870463
20
8.5261313729169164
30
0
11
-6.7989526149782433
21
8.7761313729169181
31
0
0
LINE
5
198
100
AcDbEntity
8
0
100
AcDbLine
10
-2.2319170453419508
20
0.86579372633258533
30
0
11
-2.7929352947278292
21
1.8375058382422744
31
0
0
LINE
5
199
100
AcDbEntity
8
0
100
AcDbLine
10
-6.6829272223696687
20
10.575169497950741
30
0
11
-7.6365908584442952
21
10.024571540946699
31
0
0
LINE
5
200
100
AcDbEntity
8
0
100
AcDbLine
10
-7.231965316870463
20
8.5261313729169164
30
0
11
-6.7989526149782433
21
8.7761313729169181
31
0
0
LINE
5
201
100
AcDbEntity
8
0
100
AcDbLine
10
-3.7929352947278288
20
3.5695566458111521
30
0
11
-4.5490381517146306
21
4.8791652098602789
31
0
0
LINE
5
202
100
AcDbEntity
8
0
100
AcDbLine
10
-3.7929352947278288
20
3.5695566458111521
30
0
11
-4.5490381517146306
21
4.8791652098602789
31
0
0
LINE
5
203
100
AcDbEntity
8
0
100
AcDbLine
10
0.36602540378442328
20
2.3660254037844699
30
0
11
-0.20096191428428289
21
3.3480762514479978
31
0
0
LINE
5
204
100
AcDbEntity
8
0
100
AcDbLine
10
-0.76794917545246166
20
5.3301270491189374
30
0
11
-1.2009619142842822
21
5.080127059016875
31
0
0
LINE
5
205
100
AcDbEntity
8
0
100
AcDbLine
10
-1.9509619403613143
20
6.379165209860278
30
0
11
-1.2009619142842822
21
5.080127059016875
31
0
0
LINE
5
206
100
AcDbEntity
8
0
100
AcDbLine
10
-1.9509619403613143
20
6.379165209860278
30
0
11
-1.5179492150503267
21
6.6291652233811096
31
0
0
LINE
5
207
100
AcDbEntity
8
0
100
AcDbLine
10
-1.2009619142842822
20
5.080127059016875
30
0
11
-1.9509619403613143
21
6.379165209860278
31
0
0
LINE
5
208
100
AcDbEntity
8
0
100
AcDbLine
10
-1.2009619142842822
20
5.080127059016875
30
0
11
-1.9509619403613143
21
6.379165209860278
31
0
0
LINE
5
209
100
AcDbEntity
8
0
100
AcDbLine
10
-0.76794921239206326
20
5.3301270590168741
30
0
11
-1.2009619142842822
21
5.080127059016875
31
0
0
LINE
5
210
100
AcDbEntity
8
0
100
AcDbLine
10
-1.5179492150503267
20
6.6291652233811096
30
0
11
-2.5180477150503262
21
8.3613866379545332
31
0
0
LINE
5
211
100
AcDbEntity
8
0
100
AcDbLine
10
-1.9509619403613143
20
6.379165209860278
30
0
11
-1.5179492150503267
21
6.6291652233811096
31
0
0
LINE
5
212
100
AcDbEntity
8
0
100
AcDbLine
10
-1.5179492150503267
20
6.6291652233811096
30
0
11
-2.5180478738375034
21
8.3613869129819918
31
0
0
LINE
5
213
100
AcDbEntity
8
0
100
AcDbLine
10
-1.9509619403613143
20
6.379165209860278
30
0
11
-1.2009619142842822
21
5.080127059016875
31
0
0
ARC
5
214
100
AcDbEntity
8
0
100
AcDbCircle
10
-4.6643594063664242
20
11.278907536193101
30
0
40
0.40000000000000291
210
0
220
-0
230
1
100
AcDbArc
50
30.00000000000022
51
119.99999999999982
0
LINE
5
215
100
AcDbEntity
8
0
100
AcDbLine
10
1.8658916073615177
20
1.4997682991280981
30
0
11
1.865757884112186
21
1.4999999972393421
31
0
0
LINE
5
216
100
AcDbEntity
8
0
100
AcDbLine
10
-0.20096191428428289
20
3.3480762514479978
30
0
11
0.36602540378442328
21
2.3660254037844699
31
0
0
LINE
5
217
100
AcDbEntity
8
0
100
AcDbLine
10
-0.20096191428428289
20
3.3480762514479978
30
0
11
0.23205082454753789
21
3.5980762415500598
31
0
0
LINE
5
218
100
AcDbEntity
8
0
100
AcDbLine
10
-0.20096191428428289
20
3.3480762514479978
30
0
11
0.23205081102670477
21
3.5980762649688298
31
0
0
LINE
5
219
100
AcDbEntity
8
0
100
AcDbLine
10
-5.5491366564962332
20
-6.6113866216730388
30
0
11
-6.7990381862985565
21
-8.7762795757487275
31
0
0
LINE
5
220
100
AcDbEntity
8
0
100
AcDbLine
10
-7.2320509116095444
20
-8.5262795622278951
30
0
11
-7.7820509116095433
21
-9.4789075063907759
31
0
0
LINE
5
221
100
AcDbEntity
8
0
100
AcDbLine
10
-6.7990381862985565
20
-8.7762795757487275
30
0
11
-7.2320509116095444
21
-8.5262795622278951
31
0
0
LINE
5
222
100
AcDbEntity
8
0
100
AcDbLine
10
-6.7990381862985565
20
-8.7762795757487275
30
0
11
-7.2320509116095444
21
-8.5262795622278951
31
0
0
LINE
5
223
100
AcDbEntity
8
0
100
AcDbLine
10
-6.7990381862985565
20
-8.7762795757487275
30
0
11
-7.2320509116095444
21
-8.5262795622278951
31
0
0
LINE
5
224
100
AcDbEntity
8
0
100
AcDbLine
10
-7.635640750095769
20
-10.025317667904551
30
0
11
-6.6830127865757101
21
-10.575317679080422
31
0
0
LINE
5
225
100
AcDbEntity
8
0
100
AcDbLine
10
-5.9821493818072202
20
-6.3613866081522072
30
0
11
-5.5491366564962332
21
-6.6113866216730388
31
0
0
LINE
5
226
100
AcDbEntity
8
0
100
AcDbLine
10
-2.2320508075688963
20
-0.86602540378446735
30
0
11
-2.7990381304192002
21
-1.8480762486873386
31
0
0
LINE
5
227
100
AcDbEntity
8
0
100
AcDbLine
10
-5.9821495405943974
20
-6.3613868831796658
30
0
11
-5.5491368152834104
21
-6.6113868967004974
31
0
0
LINE
5
228
100
AcDbEntity
8
0
100
AcDbLine
10
-3.2320508422093543
20
-1.5980762117477361
30
0
11
-4.2320508422093557
21
-3.3301270193166128
31
0
0
LINE
5
229
100
AcDbEntity
8
0
100
AcDbLine
10
-6.7990381862985565
20
-8.7762795757487275
30
0
11
-7.2320509116095444
21
-8.5262795622278951
31
0
0
LINE
5
230
100
AcDbEntity
8
0
100
AcDbLine
10
-7.2320509116095444
20
-8.5262795622278951
30
0
11
-7.7820509116095433
21
-9.4789075063907759
31
0
0
ARC
5
231
100
AcDbEntity
8
0
100
AcDbCircle
10
-7.4356407500957662
20
-9.6789075063907752
30
0
40
0.40000000000000108
210
0
220
0
230
1
100
AcDbArc
50
150.00000000000023
51
239.99999999999963
0
LINE
5
232
100
AcDbEntity
8
0
100
AcDbLine
10
-3.2320508557301872
20
-1.5980762351665061
30
0
11
-4.232050832311419
21
-3.3301270562562153
31
0
0
LINE
5
233
100
AcDbEntity
8
0
100
AcDbLine
10
-2.7990381304192002
20
-1.8480762486873386
30
0
11
-2.2320508075688963
21
-0.86602540378446735
31
0
0
LINE
5
234
100
AcDbEntity
8
0
100
AcDbLine
10
-7.635640750095769
20
-10.025317667904551
30
0
11
-6.6830127865757101
21
-10.575317679080422
31
0
0
LINE
5
235
100
AcDbEntity
8
0
100
AcDbLine
10
-2.9509619451429181
20
-8.1112160146684946
30
0
11
-2.5179492150503306
21
-8.3612160309499846
31
0
0
LINE
5
236
100
AcDbEntity
8
0
100
AcDbLine
10
0.23815361373610444
20
-3.5875058354816152
30
0
11
-0.19488654369766234
21
-3.3374899840173118
31
0
0
LINE
5
237
100
AcDbEntity
8
0
100
AcDbLine
10
0.36618661587555146
20
-2.3658095765877323
30
0
11
-0.19488654369766234
21
-3.3374899840173118
31
0
0
LINE
5
238
100
AcDbEntity
8
0
100
AcDbLine
10
0.23815361373610444
20
-3.5875058354816152
30
0
11
-0.19485908815611475
21
-3.3375058354816152
31
0
0
LINE
5
239
100
AcDbEntity
8
0
100
AcDbLine
10
0.86598387938556209
20
-1.5000719168472909
30
0
11
0.86602542122710746
21
-1.5000000027606584
31
0
0
LINE
5
240
100
AcDbEntity
8
0
100
AcDbLine
10
-0.76184638626389578
20
-5.3195566430504915
30
0
11
0.23815361373610444
21
-3.5875058354816152
31
0
0
LINE
5
241
100
AcDbEntity
8
0
100
AcDbLine
10
-4.3184616746942197
20
-11.479795025588047
30
0
11
-3.7678637065143112
21
-10.526131370156255
31
0
0
LINE
5
242
100
AcDbEntity
8
0
100
AcDbLine
10
-4.3184616746942197
20
-11.479795025588047
30
0
11
-3.7678637065143112
21
-10.526131370156255
31
0
0
LINE
5
243
100
AcDbEntity
8
0
100
AcDbLine
10
-1.5179492150503302
20
-6.6291652233811078
30
0
11
-1.9509619451429177
21
-6.3791652070996179
31
0
0
ARC
5
244
100
AcDbEntity
8
0
100
AcDbCircle
10
-4.6638361442962522
20
-11.28039298259209
30
0
40
0.3988040859919143
210
0
220
0
230
1
100
AcDbArc
50
239.99999999999997
51
330.00000000000017
0
ARC
5
245
100
AcDbEntity
8
0
100
AcDbCircle
10
-4.6638361442962522
20
-11.28039298259209
30
0
40
0.3988040859919143
210
0
220
0
230
1
100
AcDbArc
50
239.99999999999997
51
330.00000000000017
0
LINE
5
246
100
AcDbEntity
8
0
100
AcDbLine
10
-4.2008764084065326
20
-10.276131370156255
30
0
11
-2.9509619451429181
21
-8.1112160146684946
31
0
0
LINE
5
247
100
AcDbEntity
8
0
100
AcDbLine
10
-2.5179492150503306
20
-8.3612160309499846
30
0
11
-1.5179492150503302
21
-6.6291652233811078
31
0
0
LINE
5
248
100
AcDbEntity
8
0
100
AcDbLine
10
-5.8169018233668357
20
-11.075169495190078
30
0
11
-4.8632381872922092
21
-11.625767452194122
31
0
0
LINE
5
249
100
AcDbEntity
8
0
100
AcDbLine
10
-1.194859088156115
20
-5.0695566430504915
30
0
11
-0.76184638626389578
21
-5.3195566430504915
31
0
0
LINE
5
250
100
AcDbEntity
8
0
100
AcDbLine
10
0.86602541196835481
20
-1.4999999803037245
30
0
11
0.86598387938556209
21
-1.5000719168472909
31
0
0
LINE
5
251
100
AcDbEntity
8
0
100
AcDbLine
10
-2.5179492150503306
20
-8.3612160309499846
30
0
11
-1.5179492150503302
21
-6.6291652233811078
31
0
0
LINE
5
252
100
AcDbEntity
8
0
100
AcDbLine
10
-1.194859088156115
20
-5.0695566430504915
30
0
11
-0.76184638626389578
21
-5.3195566430504915
31
0
0
LINE
5
253
100
AcDbEntity
8
0
100
AcDbLine
10
-1.5179492150503302
20
-6.6291652233811078
30
0
11
-1.9509619451429177
21
-6.3791652070996179
31
0
0
LINE
5
254
100
AcDbEntity
8
0
100
AcDbLine
10
0.86602541196835481
20
-1.4999999803037245
30
0
11
0.86598387938556209
21
-1.5000719168472909
31
0
0
LINE
5
255
100
AcDbEntity
8
0
100
AcDbLine
10
-0.76184638626389578
20
-5.3195566430504915
30
0
11
0.23815361373610444
21
-3.5875058354816152
31
0
0
LINE
5
256
100
AcDbEntity
8
0
100
AcDbLine
10
-2.9509619451429181
20
-8.1112160146684946
30
0
11
-2.5179492150503306
21
-8.3612160309499846
31
0
0
LINE
5
257
100
AcDbEntity
8
0
100
AcDbLine
10
-3.7678637065143112
20
-10.526131370156255
30
0
11
-4.2008764084065326
21
-10.276131370156255
31
0
0
LINE
5
258
100
AcDbEntity
8
0
100
AcDbLine
10
0.86598387938556209
20
-1.5000719168472909
30
0
11
0.86602542122710746
21
-1.5000000027606584
31
0
0
LINE
5
259
100
AcDbEntity
8
0
100
AcDbLine
10
0.36615916122976411
20
-2.3657937235719269
30
0
11
-0.19485908815611475
21
-3.3375058354816152
31
0
0
LINE
5
260
100
AcDbEntity
8
0
100
AcDbLine
10
0.3659190978033019
20
-2.3658095201457625
30
0
11
0.36618661587555146
21
-2.3658095765877323
31
0
0
LINE
5
261
100
AcDbEntity
8
0
100
AcDbLine
10
-5.8169018233668357
20
-11.075169495190078
30
0
11
-4.8632381872922092
21
-11.625767452194122
31
0
0
LINE
5
262
100
AcDbEntity
8
0
100
AcDbLine
10
-3.7678637065143112
20
-10.526131370156255
30
0
11
-4.2008764084065326
21
-10.276131370156255
31
0
0
LINE
5
263
100
AcDbEntity
8
0
100
AcDbLine
10
-1.194859088156115
20
-5.0695566430504915
30
0
11
-1.9509619451429177
21
-6.3791652070996179
31
0
0
LINE
5
264
100
AcDbEntity
8
0
100
AcDbLine
10
-1.194859088156115
20
-5.0695566430504915
30
0
11
-1.9509619451429177
21
-6.3791652070996179
31
0
0
LINE
5
265
100
AcDbEntity
8
0
100
AcDbLine
10
-2.2320508075688963
20
-0.86602540378446735
30
0
11
-2.7990381304192002
21
-1.8480762486873386
31
0
0
LINE
5
266
100
AcDbEntity
8
0
100
AcDbLine
10
-4.2320508422093557
20
-3.3301270193166128
30
0
11
-3.7990381304192007
21
-3.5801270562562153
31
0
0
LINE
5
267
100
AcDbEntity
8
0
100
AcDbLine
10
-4.5490381564962323
20
-4.879165207099617
30
0
11
-3.7990381304192007
21
-3.5801270562562153
31
0
0
LINE
5
268
100
AcDbEntity
8
0
100
AcDbLine
10
-4.5490381564962323
20
-4.879165207099617
30
0
11
-4.9820508818072202
21
-4.6291651935787854
31
0
0
LINE
5
269
100
AcDbEntity
8
0
100
AcDbLine
10
-3.7990381304192007
20
-3.5801270562562153
30
0
11
-4.5490381564962323
21
-4.879165207099617
31
0
0
LINE
5
270
100
AcDbEntity
8
0
100
AcDbLine
10
-3.7990381304192007
20
-3.5801270562562153
30
0
11
-4.5490381564962323
21
-4.879165207099617
31
0
0
LINE
5
271
100
AcDbEntity
8
0
100
AcDbLine
10
-4.232050832311419
20
-3.3301270562562153
30
0
11
-3.7990381304192007
21
-3.5801270562562153
31
0
0
LINE
5
272
100
AcDbEntity
8
0
100
AcDbLine
10
-4.9820508818072202
20
-4.6291651935787854
30
0
11
-5.9821493818072202
21
-6.3613866081522072
31
0
0
LINE
5
273
100
AcDbEntity
8
0
100
AcDbLine
10
-4.5490381564962323
20
-4.879165207099617
30
0
11
-4.9820508818072202
21
-4.6291651935787854
31
0
0
LINE
5
274
100
AcDbEntity
8
0
100
AcDbLine
10
-4.9820508818072202
20
-4.6291651935787854
30
0
11
-5.9821495405943974
21
-6.3613868831796658
31
0
0
LINE
5
275
100
AcDbEntity
8
0
100
AcDbLine
10
-4.5490381564962323
20
-4.879165207099617
30
0
11
-3.7990381304192007
21
-3.5801270562562153
31
0
0
ARC
5
276
100
AcDbEntity
8
0
100
AcDbCircle
10
-7.4356407500957662
20
-9.6789075063907752
30
0
40
0.40000000000000108
210
0
220
0
230
1
100
AcDbArc
50
150.00000000000023
51
239.99999999999963
0
LINE
5
277
100
AcDbEntity
8
0
100
AcDbLine
10
-2.23178325051627
20
0.86602538311920441
30
0
11
-2.2319170453419508
21
0.86579372633258533
31
0
0
LINE
5
278
100
AcDbEntity
8
0
100
AcDbLine
10
-2.7990381304192002
20
-1.8480762486873386
30
0
11
-2.2320508075688963
21
-0.86602540378446735
31
0
0
LINE
5
279
100
AcDbEntity
8
0
100
AcDbLine
10
-2.7990381304192002
20
-1.8480762486873386
30
0
11
-3.2320508422093543
21
-1.5980762117477361
31
0
0
LINE
5
280
100
AcDbEntity
8
0
100
AcDbLine
10
-2.7990381304192002
20
-1.8480762486873386
30
0
11
-3.2320508557301872
21
-1.5980762351665061
31
0
0
LINE
5
281
100
AcDbEntity
8
0
100
AcDbLine
10
1.8660254037844739
20
-1.5000000000000018
30
0
11
1.8660254037844739
21
-2.2867210999645753
31
0
0
LINE
5
282
100
AcDbEntity
8
0
100
AcDbLine
10
0.3661292886612505
20
-2.3659088572786695
30
0
11
0.3659190978033019
21
-2.3658095201457625
31
0
0
LINE
5
283
100
AcDbEntity
8
0
100
AcDbLine
10
0.36589163601949748
20
-2.3660460938578503
30
0
11
1.0471898751747279
21
-2.7594451505144448
31
0
0
LINE
5
284
100
AcDbEntity
8
0
100
AcDbLine
10
0.36602824189713201
20
-2.3658095431733943
30
0
11
0.36589163601949748
21
-2.3660460938578503
31
0
0
LINE
5
285
100
AcDbEntity
8
0
100
AcDbLine
10
1.8660254037844739
20
-2.2867210999645753
30
0
11
1.0471898751747279
21
-2.7594451505144448
31
0
0
LINE
5
286
100
AcDbEntity
8
0
100
AcDbLine
10
11.510059160387289
20
-5.001833768403011
30
0
11
1.8660253631723882
21
-5.001833768403011
31
0
0
LINE
5
287
100
AcDbEntity
8
0
100
AcDbLine
10
2.9999998010309721
20
-3.001833768403011
30
0
11
1.8660253631723882
21
-3.001833768403011
31
0
0
LINE
5
288
100
AcDbEntity
8
0
100
AcDbLine
10
1.8660253631723882
20
-3.001833768403011
30
0
11
1.8660253631723882
21
-3.501833768403011
31
0
0
LINE
5
289
100
AcDbEntity
8
0
100
AcDbLine
10
2.9999998010309721
20
-3.501833768403011
30
0
11
2.9999998010309721
21
-3.001833768403011
31
0
0
LINE
5
290
100
AcDbEntity
8
0
100
AcDbLine
10
6.507204051256565
20
-3.501833768403011
30
0
11
6.507204051256565
21
-3.001833768403011
31
0
0
LINE
5
291
100
AcDbEntity
8
0
100
AcDbLine
10
6.507204051256565
20
-3.001833768403011
30
0
11
5.000000074505806
21
-3.001833768403011
31
0
0
LINE
5
292
100
AcDbEntity
8
0
100
AcDbLine
10
5.000000074505806
20
-3.001833768403011
30
0
11
5.000000074505806
21
-3.501833768403011
31
0
0
LINE
5
293
100
AcDbEntity
8
0
100
AcDbLine
10
11.010059160387289
20
-3.501833768403011
30
0
11
11.010059160387289
21
-3.001833768403011
31
0
0
LINE
5
294
100
AcDbEntity
8
0
100
AcDbLine
10
11.010059160387289
20
-3.001833768403011
30
0
11
8.5000001266598701
21
-3.001833768403011
31
0
0
LINE
5
295
100
AcDbEntity
8
0
100
AcDbLine
10
8.5000001266598701
20
-3.001833768403011
30
0
11
8.5000001266598701
21
-3.501833768403011
31
0
0
LINE
5
296
100
AcDbEntity
8
0
100
AcDbLine
10
2.9999998010309721
20
-3.501833768403011
30
0
11
5.000000074505806
21
-3.501833768403011
31
0
0
LINE
5
297
100
AcDbEntity
8
0
100
AcDbLine
10
6.507204051256565
20
-3.501833768403011
30
0
11
8.5000001266598701
21
-3.501833768403011
31
0
0
LINE
5
298
100
AcDbEntity
8
0
100
AcDbLine
10
1.8660253631723882
20
-3.001833768403011
30
0
11
2.9999998010309721
21
-3.001833768403011
31
0
0
LINE
5
299
100
AcDbEntity
8
0
100
AcDbLine
10
5.000000074505806
20
-3.001833768403011
30
0
11
6.507204051256565
21
-3.001833768403011
31
0
0
LINE
5
300
100
AcDbEntity
8
0
100
AcDbLine
10
8.5000001266598701
20
-3.001833768403011
30
0
11
11.010059160387289
21
-3.001833768403011
31
0
0
LINE
5
301
100
AcDbEntity
8
0
100
AcDbLine
10
11.010059160387289
20
-3.501833768403011
30
0
11
11.510059160387289
21
-3.501833768403011
31
0
0
LINE
5
302
100
AcDbEntity
8
0
100
AcDbLine
10
1.5000000223517418
20
-5.000000074505806
30
0
11
2.500000037252903
21
-5.000000074505806
31
0
0
LINE
5
303
100
AcDbEntity
8
0
100
AcDbLine
10
1.5000000223517418
20
-4.5000000670552254
30
0
11
1.5000000223517418
21
-5.000000074505806
31
0
0
LINE
5
304
100
AcDbEntity
8
0
100
AcDbLine
10
1.8660253631723882
20
-5.001833768403011
30
0
11
1.8660253631723882
21
-5.000000074505806
31
0
0
LINE
5
305
100
AcDbEntity
8
0
100
AcDbLine
10
1.8660253631723882
20
-3.501833768403011
30
0
11
1.8660253631723882
21
-3.001833768403011
31
0
0
LINE
5
306
100
AcDbEntity
8
0
100
AcDbLine
10
1.5741497404755573
20
-2.4552245918081494
30
0
11
1.8660254037844739
21
-2.2867210999645753
31
0
0
LINE
5
307
100
AcDbEntity
8
0
100
AcDbLine
10
3.9203484610357204
20
-8.5825864174057394
30
0
11
3.6283611801056894
21
-9.0883232231404403
31
0
0
LINE
5
308
100
AcDbEntity
8
0
100
AcDbLine
10
3.9203484702944733
20
-8.5825864398626717
30
0
11
4.504323015277012
21
-8.5825864382505195
31
0
0
LINE
5
309
100
AcDbEntity
8
0
100
AcDbLine
10
4.0612463006879169
20
-9.338380153855141
30
0
11
3.8532132846911962
21
-9.6986570148469564
31
0
0
LINE
5
310
100
AcDbEntity
8
0
100
AcDbLine
10
4.5043230166573389
20
-9.0825863923985306
30
0
11
4.9203484393310051
21
-9.0825864669043366
31
0
0
LINE
5
311
100
AcDbEntity
8
0
100
AcDbLine
10
4.9203484393310051
20
-9.0825864669043366
30
0
11
3.8532132846911962
21
-9.6986570148469564
31
0
0
LINE
5
312
100
AcDbEntity
8
0
100
AcDbLine
10
3.9203484610357204
20
-8.5825864174057394
30
0
11
4.3867808620111015
21
-9.3906217408756483
31
0
0
LINE
5
313
100
AcDbEntity
8
0
100
AcDbLine
10
4.5043230166573389
20
-9.0825863923985306
30
0
11
4.504323015277012
21
-8.5825864382505195
31
0
0
LINE
5
314
100
AcDbEntity
8
0
100
AcDbLine
10
4.0612517874979703
20
-9.3383459752005002
30
0
11
3.6282795141369384
21
-9.0882760556807902
31
0
0
LINE
5
315
100
AcDbEntity
8
0
100
AcDbLine
10
2.3869673454352496
20
-9.0825863923985217
30
0
11
2.8029927681089148
21
-9.0825864669043277
31
0
0
LINE
5
316
100
AcDbEntity
8
0
100
AcDbLine
10
1.8029927898136315
20
-8.5825864174057305
30
0
11
1.511005508883601
21
-9.0883232231404296
31
0
0
LINE
5
317
100
AcDbEntity
8
0
100
AcDbLine
10
1.943896116275881
20
-9.3383459752004914
30
0
11
1.5109238429148499
21
-9.0882760556807813
31
0
0
LINE
5
318
100
AcDbEntity
8
0
100
AcDbLine
10
1.9438906294658276
20
-9.3383801538551321
30
0
11
1.7358576134691073
21
-9.6986570148469475
31
0
0
LINE
5
319
100
AcDbEntity
8
0
100
AcDbLine
10
1.8029927990723844
20
-8.5825864398626628
30
0
11
2.3869673440549235
21
-8.5825864382505106
31
0
0
LINE
5
320
100
AcDbEntity
8
0
100
AcDbLine
10
2.8029927681089148
20
-9.0825864669043277
30
0
11
1.7358576134691073
21
-9.6986570148469475
31
0
0
LINE
5
321
100
AcDbEntity
8
0
100
AcDbLine
10
2.3869673454352496
20
-9.0825863923985217
30
0
11
2.3869673440549235
21
-8.5825864382505106
31
0
0
LINE
5
322
100
AcDbEntity
8
0
100
AcDbLine
10
1.8029927898136315
20
-8.5825864174057305
30
0
11
2.2694251907890122
21
-9.3906217408756394
31
0
0
LINE
5
323
100
AcDbEntity
8
0
100
AcDbLine
10
12.499829045736504
20
0.49999999723934213
30
0
11
12.500000156462193
21
-0.5000000074505806
31
0
0
LINE
5
324
100
AcDbEntity
8
0
100
AcDbLine
10
12.499829045736504
20
0.49999999723934213
30
0
11
12.499829045736504
21
1.6011959112474277
31
0
0
LINE
5
325
100
AcDbEntity
8
0
100
AcDbLine
10
11.000000156462193
20
-1.5000000027606579
30
0
11
11.000000156462193
21
-2.0000000298023224
31
0
0
LINE
5
326
100
AcDbEntity
8
0
100
AcDbLine
10
11.510059160387289
20
-3.501833768403011
30
0
11
11.510059160387289
21
-5.001833768403011
31
0
0
LINE
5
327
100
AcDbEntity
8
0
100
AcDbLine
10
13.500000171363354
20
-2.0000000298023224
30
0
11
13.500000171363354
21
-1.5000000223517418
31
0
0
LINE
5
328
100
AcDbEntity
8
0
100
AcDbLine
10
13.500000171363354
20
-1.5000000223517418
30
0
11
13.900000003918219
21
-1.500000006678875
31
0
0
LINE
5
329
100
AcDbEntity
8
0
100
AcDbLine
10
14
20
-1.400000006678876
30
0
11
14
21
1.3999999972393415
31
0
0
LINE
5
330
100
AcDbEntity
8
0
100
AcDbLine
10
13.9
20
1.4999999972393421
30
0
11
13.500000171363354
21
1.4999999972393421
31
0
0
LINE
5
331
100
AcDbEntity
8
0
100
AcDbLine
10
13.500000171363354
20
1.4999999972393421
30
0
11
13.500000171363354
21
1.9999999972393436
31
0
0
LINE
5
332
100
AcDbEntity
8
0
100
AcDbLine
10
14.499829045736504
20
0.49999999723934213
30
0
11
14.500000156462193
21
-0.5000000074505806
31
0
0
LINE
5
333
100
AcDbEntity
8
0
100
AcDbLine
10
14.499829045736504
20
0.49999999723934213
30
0
11
14.499829045736504
21
1.6011959112474277
31
0
0
ARC
5
334
100
AcDbEntity
8
0
100
AcDbCircle
10
14.10102495974459
20
1.6011959112474279
30
0
40
0.39880408599191419
210
-0
220
0
230
1
100
AcDbArc
50
0
51
90
0
LINE
5
335
100
AcDbEntity
8
0
100
AcDbLine
10
14.10102495974459
20
1.9999999972393434
30
0
11
14.000000208616257
21
1.9999999972393434
31
0
0
LINE
5
336
100
AcDbEntity
8
0
100
AcDbLine
10
14.000000208616257
20
-2.0000000298023224
30
0
11
14.100000156462192
21
-2.0000000298023224
31
0
0
ARC
5
337
100
AcDbEntity
8
0
100
AcDbCircle
10
14.10000015646219
20
-1.6000000298023203
30
0
40
0.40000000000000213
210
-0
220
0
230
1
100
AcDbArc
50
270.00000000000023
51
360
0
LINE
5
338
100
AcDbEntity
8
0
100
AcDbLine
10
14.500000156462193
20
-1.6000000298023225
30
0
11
14.500000156462193
21
-0.5000000074505806
31
0
0
ARC
5
339
100
AcDbEntity
8
0
100
AcDbCircle
10
13.9
20
1.399999997239342
30
0
40
0.099999999999999645
210
-0
220
0
230
1
100
AcDbArc
50
0
51
90
0
ARC
5
340
100
AcDbEntity
8
0
100
AcDbCircle
10
13.900000000000002
20
-1.4000000066788771
30
0
40
0.099999999999997952
210
-0
220
0
230
1
100
AcDbArc
50
-89.99999775502711
51
0
0
LINE
5
341
100
AcDbEntity
8
0
100
AcDbLine
10
13.000000193715096
20
-2.0000000298023224
30
0
11
13.500000171363354
21
-2.0000000298023224
31
0
0
LINE
5
342
100
AcDbEntity
8
0
100
AcDbLine
10
14.000000208616257
20
-2.0000000298023224
30
0
11
14.000000208616257
21
-2.1000000312924385
31
0
0
LINE
5
343
100
AcDbEntity
8
0
100
AcDbLine
10
14.000000208616257
20
-2.1000000312924385
30
0
11
13.000000193715096
21
-2.1000000312924385
31
0
0
LINE
5
344
100
AcDbEntity
8
0
100
AcDbLine
10
13.000000193715096
20
-2.1000000312924385
30
0
11
13.000000193715096
21
-2.0000000298023224
31
0
0
LINE
5
345
100
AcDbEntity
8
0
100
AcDbLine
10
14.000000208616257
20
2.1000000312924385
30
0
11
13.000000208616257
21
2.1000000312924385
31
0
0
LINE
5
346
100
AcDbEntity
8
0
100
AcDbLine
10
13.000000208616257
20
2.1000000312924385
30
0
11
13.000000208616257
21
1.9999999972393434
31
0
0
LINE
5
347
100
AcDbEntity
8
0
100
AcDbLine
10
13.000000208616257
20
1.9999999972393434
30
0
11
13.500000171363354
21
1.9999999972393436
31
0
0
LINE
5
348
100
AcDbEntity
8
0
100
AcDbLine
10
14.000000208616257
20
1.9999999972393434
30
0
11
14.000000208616257
21
2.1000000312924385
31
0
0
LINE
5
349
100
AcDbEntity
8
0
100
AcDbLine
10
1.0473458620469807
20
2.7593859537667562
30
0
11
1.8661546631079196
21
2.2866156097443913
31
0
0
LINE
5
350
100
AcDbEntity
8
0
100
AcDbLine
10
0.36602540378442328
20
2.3660254037844699
30
0
11
1.0473458620469807
21
2.7593859537667562
31
0
0
LINE
5
351
100
AcDbEntity
8
0
100
AcDbLine
10
1.8661102057960901
20
1.4998944987540588
30
0
11
1.8661546631079196
21
2.2866156097443913
31
0
0
LINE
5
352
100
AcDbEntity
8
0
100
AcDbLine
10
-2.9133712658314548
20
-0.47266485380218032
30
0
11
-2.9133445382826473
21
0.4728295407700544
31
0
0
LINE
5
353
100
AcDbEntity
8
0
100
AcDbLine
10
-2.2320508075688963
20
-0.86602540378446735
30
0
11
-2.9133712658314548
21
-0.47266485380218032
31
0
0
LINE
5
354
100
AcDbEntity
8
0
100
AcDbLine
10
-2.2320018418155869
20
0.86615159510379147
30
0
11
-2.9133445382826473
21
0.4728295407700544
31
0
0
LINE
5
355
100
AcDbEntity
8
0
100
AcDbLine
10
1.5000000223517418
20
-3.5000000521540642
30
0
11
1.5000000223517418
21
-4.5000000670552254
31
0
0
LINE
5
356
100
AcDbEntity
8
0
100
AcDbLine
10
1.5000000223517418
20
-3.5000000521540642
30
0
11
1.8660253631723882
21
-3.501833768403011
31
0
0
LINE
5
357
100
AcDbEntity
8
0
100
AcDbLine
10
-1.5835679957078796
20
-2.2428198314644217
30
0
11
-1.5994451082464116
21
-2.2703197910189821
31
0
0
ELLIPSE
5
358
100
AcDbEntity
8
0
100
AcDbEllipse
10
-1.6250000242143876
20
-2.8145826042399733
30
0
11
0.86602546884328679
21
-0.49999991711709185
31
0.0
40
0.49999999999999523
41
1.570796326794897
42
1.5715145794572527
0
ELLIPSE
5
359
100
AcDbEntity
8
0
100
AcDbEllipse
10
-3.1260329091891244
20
-5.4144478248479055
30
0
11
0.86705833146628142
21
-0.49821094657682707
31
0.0
40
0.48509322946503802
41
1.5611919233778973
42
1.5762124183908315
0
LINE
5
360
100
AcDbEntity
8
0
100
AcDbLine
10
-2.0835680821729352
20
-3.1088451948103044
30
0
11
-2.1075173192578807
21
-3.1503264811336344
31
0
0
ELLIPSE
5
361
100
AcDbEntity
8
0
100
AcDbEllipse
10
-1.6250000242143876
20
-2.8145826042399733
30
0
11
0.86602546884328679
21
-0.49999991711709185
31
0.0
40
0.49999999999999534
41
1.8234767326914669
42
4.4597083750797806
0
ELLIPSE
5
362
100
AcDbEntity
8
0
100
AcDbEllipse
10
-1.6250000242143876
20
-2.8145826042399733
30
0
11
0.86602546884328679
21
-0.49999991711709185
31
0.0
40
0.49999999999999534
41
4.965069510235657
42
7.6013011041235163
0
LINE
5
363
100
AcDbEntity
8
0
100
AcDbLine
10
-1.650554828496285
20
-3.358845464051647
30
0
11
-1.6745040828088955
21
-3.4003267993168853
31
0
0
ELLIPSE
5
364
100
AcDbEntity
8
0
100
AcDbEllipse
10
-4.375000065192582
20
-7.5777223960306967
30
0
11
0.86602546884328679
21
-0.49999991711709185
31
0.0
40
0.98715869724823513
41
1.8234771757529484
42
4.4597077377312857
0
ELLIPSE
5
365
100
AcDbEntity
8
0
100
AcDbEllipse
10
-2.3792527409012996
20
-4.1209866312885577
30
0
11
0.5042529321149134
21
0.87339190867936223
31
0.0
40
0.99160157708368557
41
3.3942640069086307
42
6.0305139538607486
0
LINE
5
366
100
AcDbEntity
8
0
100
AcDbLine
10
-5.0694132086955417
20
-8.280479521661551
30
0
11
-5.0932290109879963
21
-8.3217296921955484
31
0
0
ELLIPSE
5
367
100
AcDbEntity
8
0
100
AcDbEllipse
10
-3.1260329091891244
20
-5.4144478248479055
30
0
11
0.86705833146628175
21
-0.4982109465768273
31
0.0
40
0.48509322946503791
41
1.8224748319348396
42
4.4587061438204287
0
ELLIPSE
5
368
100
AcDbEntity
8
0
100
AcDbEllipse
10
-2.3792527409012996
20
-4.1209866312885577
30
0
11
0.50425293211491351
21
0.87339190867936245
31
0.0
40
0.99160157708368535
41
0.25267111362712824
42
2.8889211377681887
0
ELLIPSE
5
369
100
AcDbEntity
8
0
100
AcDbEllipse
10
-4.375000065192582
20
-7.5777223960306967
30
0
11
0.86602546884328679
21
-0.49999991711709185
31
0.0
40
0.98715869724823513
41
4.9650701027450799
42
7.6013005116140926
0
ELLIPSE
5
370
100
AcDbEntity
8
0
100
AcDbEllipse
10
-3.6250000540167111
20
-6.2786842709968633
30
0
11
0.86602546884328679
21
-0.49999991711709185
31
0.0
40
0.5128413027517611
41
1.8234771230071538
42
4.4597079796427685
0
ELLIPSE
5
371
100
AcDbEntity
8
0
100
AcDbEllipse
10
-3.1260329091891244
20
-5.4144478248479055
30
0
11
0.86705833146628131
21
-0.49821094657682718
31
0.0
40
0.48509322946503808
41
4.9640676349747848
42
7.6002988414239683
0
LINE
5
372
100
AcDbEntity
8
0
100
AcDbLine
10
-3.6567712368318155
20
-6.8337150513259859
30
0
11
-3.6805870077147755
21
-6.8749651864534069
31
0
0
ELLIPSE
5
373
100
AcDbEntity
8
0
100
AcDbEllipse
10
-3.6250000540167111
20
-6.2786842709968633
30
0
11
0.86602546884328679
21
-0.49999991711709185
31
0.0
40
0.5128413027517611
41
4.9650699411515919
42
7.6013006732075805
0
LINE
5
374
100
AcDbEntity
8
0
100
AcDbLine
10
-3.084001514776741
20
-4.8416463491049671
30
0
11
-3.107891530364526
21
-4.8830250608088424
31
0
0
LINE
5
375
100
AcDbEntity
8
0
100
AcDbLine
10
-1.1505549209062336
20
-2.4928200117096821
30
0
11
-1.1664320248100171
21
-2.52031996897253
31
0
0
ELLIPSE
5
376
100
AcDbEntity
8
0
100
AcDbEllipse
10
-1.1250000167638068
20
-1.9485571875507506
30
0
11
0.86602545394212549
21
-0.49999994292666011
31
0.0
40
0.49999999999999789
41
4.7119698354831474
42
4.7123888909777243
0
ELLIPSE
5
377
100
AcDbEntity
8
0
100
AcDbEllipse
10
-1.1250000167638068
20
-1.9485571875507506
30
0
11
0.86602545394212549
21
-0.49999994292666011
31
0.0
40
0.49999999999999789
41
1.8234766493735461
42
4.4597084882000235
0
LINE
5
378
100
AcDbEntity
8
0
100
AcDbLine
10
-0.56650632328579864
20
-0.48121772728946205
30
0
11
-1.0994450095039598
21
-1.40429440640803
31
0
0
LINE
5
379
100
AcDbEntity
8
0
100
AcDbLine
10
-3.5775828327838934
20
-5.6965540818014455
30
0
11
-3.5932287226695272
21
-5.7236535520612826
31
0
0
LINE
5
380
100
AcDbEntity
8
0
100
AcDbLine
10
-2.8834854345616736
20
-4.9943431439482717
30
0
11
-2.8835058211007247
21
-4.9943784544712919
31
0
0
ELLIPSE
5
381
100
AcDbEntity
8
0
100
AcDbEllipse
10
-3.1260329091891244
20
-5.4144478248479055
30
0
11
0.86705833146628175
21
-0.4982109465768273
31
0.0
40
0.48509322946503791
41
4.7072128596644731
42
4.7124305261750568
0
LINE
5
382
100
AcDbEntity
8
0
100
AcDbLine
10
-3.1441741535194074
20
-5.9458706453450745
30
0
11
-3.1602149534111774
21
-5.973654132444409
31
0
0
LINE
5
383
100
AcDbEntity
8
0
100
AcDbLine
10
10.746556509042547
20
-0.25000095915494569
30
0
11
10.778310920704822
21
-0.25000096217479706
31
0
0
ARC
5
384
100
AcDbEntity
8
0
100
AcDbCircle
10
-0.34999996796250327
20
0.60621772715853539
30
0
40
0.2500000037252903
210
0
220
0
230
1
100
AcDbArc
50
-150.00000000000003
51
30.000000527574638
0
ELLIPSE
5
385
100
AcDbEntity
8
0
100
AcDbEllipse
10
10.250000152736902
20
0
30
0
11
-1.0430812835693359e-07
21
1.0000000149011612
31
0.0
40
0.51284130275175543
41
1.8234774176644435
42
4.4597076849854798
0
LINE
5
386
100
AcDbEntity
8
0
100
AcDbLine
10
-1.6505548740524385
20
3.3588454870813371
30
0
11
-1.6745041032476256
21
3.4003267779598216
31
0
0
LINE
5
387
100
AcDbEntity
8
0
100
AcDbLine
10
9.7058122256234931
20
-0.25000086017994422
30
0
11
9.7534438223626019
21
-0.25000086470971905
31
0
0
ELLIPSE
5
388
100
AcDbEntity
8
0
100
AcDbEllipse
10
8.7500001303851604
20
0
30
0
11
-1.0430812835693359e-07
21
1.0000000149011612
31
0.0
40
0.98715869724823513
41
1.823477175752948
42
4.4597077377312866
0
CIRCLE
5
389
100
AcDbEntity
8
0
100
AcDbCircle
10
-0.3499999679625036
20
-0.60621772715853506
30
0
40
0.24999983422458169
210
0
220
0
230
1
0
LINE
5
390
100
AcDbEntity
8
0
100
AcDbLine
10
7.7465565021172775
20
-0.25000067385431035
30
0
11
7.7941879901408049
21
-0.25000067838407491
31
0
0
ELLIPSE
5
391
100
AcDbEntity
8
0
100
AcDbEllipse
10
-1.1250000167638068
20
-1.9485571875507506
30
0
11
0.86602545394212549
21
-0.49999994292666011
31
0.0
40
0.49999999999999778
41
4.9650694174078431
42
7.6013013415795019
0
ELLIPSE
5
392
100
AcDbEntity
8
0
100
AcDbEllipse
10
4.7585054818025974
20
0
30
0
11
-1.0085060464335633
21
-1.0519537644664052e-07
31
0.0
40
0.99160157708368535
41
0.25267111362712824
42
2.8889211377681887
0
ELLIPSE
5
393
100
AcDbEntity
8
0
100
AcDbEllipse
10
3.2500000484287739
20
0
30
0
11
-1.0430812835693359e-07
21
1.0000000149011612
31
0.0
40
0.49999999999999534
41
1.8234767326914667
42
4.4597083750797815
0
ELLIPSE
5
394
100
AcDbEntity
8
0
100
AcDbEllipse
10
6.252065818378246
20
0
30
0
11
-0.0020658295541169402
21
1.0000000149011623
31
0.0
40
0.48509322946503769
41
1.8224748319348387
42
4.458706143820427
0
LINE
5
395
100
AcDbEntity
8
0
100
AcDbLine
10
-0.13349361379019797
20
-0.73121772902118032
30
0
11
-0.66643219286162136
21
-1.6542944252864484
31
0
0
ARC
5
396
100
AcDbEntity
8
0
100
AcDbCircle
10
-0.3499999679625036
20
-0.60621772715853506
30
0
40
0.2500000037252903
210
0
220
0
230
1
100
AcDbArc
50
-30.000000000000014
51
150.00000052757468
0
ELLIPSE
5
397
100
AcDbEntity
8
0
100
AcDbEllipse
10
-1.1250000167638059
20
1.9485571875507517
30
0
11
-0.86602537943631996
21
-0.50000007197450103
31
0.0
40
0.499999999999998
41
1.8234766493735464
42
4.4597084882000235
0
LINE
5
398
100
AcDbEntity
8
0
100
AcDbLine
10
6.7221519652639365
20
-0.25000057643322227
30
0
11
6.7534437398808738
21
-0.25000057940907661
31
0
0
LINE
5
399
100
AcDbEntity
8
0
100
AcDbLine
10
-1.150554952305783
20
2.4928200286352418
30
0
11
-1.1664320596138107
21
2.520319991209635
31
0
0
ELLIPSE
5
400
100
AcDbEntity
8
0
100
AcDbEllipse
10
11.250000167638063
20
0
30
0
11
-1.0430810074668522e-07
21
0.99999975020224252
31
0.0
40
0.48715876427745869
41
1.8234775543107418
42
7.601301259672927
0
LINE
5
401
100
AcDbEntity
8
0
100
AcDbLine
10
-0.566506322134809
20
0.4812177252958903
30
0
11
-1.099444901206232
21
1.4042944215611588
31
0
0
ELLIPSE
5
402
100
AcDbEntity
8
0
100
AcDbEllipse
10
-1.1250000167638059
20
1.9485571875507517
30
0
11
-0.86602537943631996
21
-0.50000007197450103
31
0.0
40
0.499999999999998
41
4.7119698354831474
42
4.7123888909777234
0
LINE
5
403
100
AcDbEntity
8
0
100
AcDbLine
10
-0.13349361494118694
20
0.73121773101475251
30
0
11
-0.66643212558976295
21
1.6542945114984682
31
0
0
LINE
5
404
100
AcDbEntity
8
0
100
AcDbLine
10
-1.5835679967496903
20
2.2428197958088352
30
0
11
-1.5994451063904112
21
2.2703197497594605
31
0
0
LINE
5
405
100
AcDbEntity
8
0
100
AcDbLine
10
-3.1445691324800431
20
5.9465546582346711
30
0
11
-3.1602150172113461
21
5.9736541314703633
31
0
0
LINE
5
406
100
AcDbEntity
8
0
100
AcDbLine
10
-3.6567713165375761
20
6.8337150596122411
30
0
11
-3.6805870566264485
21
6.8749651405255516
31
0
0
ELLIPSE
5
407
100
AcDbEntity
8
0
100
AcDbEllipse
10
-1.6250000242143863
20
2.8145826042399746
30
0
11
-0.86602536453515877
21
-0.5000000977840694
31
0.0
40
0.49999999999999545
41
1.8234767326914674
42
4.4597083750797815
0
ELLIPSE
5
408
100
AcDbEntity
8
0
100
AcDbEllipse
10
-1.6250000242143863
20
2.8145826042399746
30
0
11
-0.86602536453515877
21
-0.5000000977840694
31
0.0
40
0.49999999999999534
41
1.570796326794897
42
1.5715145794572525
0
ELLIPSE
5
409
100
AcDbEntity
8
0
100
AcDbEllipse
10
-2.3792527409012978
20
4.1209866312885604
30
0
11
0.50425311431864983
21
-0.87339180348398648
31
0.0
40
0.99160157708368513
41
3.1351779257868069
42
3.1501237461994833
0
ELLIPSE
5
410
100
AcDbEntity
8
0
100
AcDbEllipse
10
-1.6250000242143863
20
2.8145826042399746
30
0
11
-0.86602536453515877
21
-0.5000000977840694
31
0.0
40
0.49999999999999545
41
4.9650695102356561
42
7.6013011041235155
0
CIRCLE
5
411
100
AcDbEntity
8
0
100
AcDbCircle
10
-0.34999996796250327
20
0.60621772715853539
30
0
40
0.24999983422458169
210
0
220
0
230
1
0
ELLIPSE
5
412
100
AcDbEntity
8
0
100
AcDbEllipse
10
-3.1260329091891217
20
5.4144478248479082
30
0
11
-0.86499250191216526
21
-0.50178906832433479
31
0.0
40
0.48509322946503786
41
1.8224748319348396
42
4.458706143820427
0
LINE
5
413
100
AcDbEntity
8
0
100
AcDbLine
10
-3.5771879497253058
20
5.6958700135427778
30
0
11
-3.5932287554131626
21
5.7236534972957411
31
0
0
ELLIPSE
5
414
100
AcDbEntity
8
0
100
AcDbEllipse
10
-1.1250000167638059
20
1.9485571875507517
30
0
11
-0.86602537943631996
21
-0.50000007197450103
31
0.0
40
0.49999999999999789
41
4.9650694174078422
42
7.6013013415795019
0
LINE
5
415
100
AcDbEntity
8
0
100
AcDbLine
10
-2.0835680850067155
20
3.1088451438426739
30
0
11
-2.107517347973006
21
3.1503264741117079
31
0
0
ELLIPSE
5
416
100
AcDbEntity
8
0
100
AcDbEllipse
10
-3.1260329091891217
20
5.4144478248479082
30
0
11
-0.86499250191216526
21
-0.50178906832433479
31
0.0
40
0.48509322946503786
41
4.7072128596644731
42
4.7124305261750559
0
LINE
5
417
100
AcDbEntity
8
0
100
AcDbLine
10
-5.5897846527318489
20
9.1817910144497397
30
0
11
-5.6056617684966854
21
9.209290985632089
31
0
0
ELLIPSE
5
418
100
AcDbEntity
8
0
100
AcDbEllipse
10
-4.3750000651925784
20
7.5777223960307012
30
0
11
-0.86602536453515877
21
-0.5000000977840694
31
0.0
40
0.98715869724823535
41
1.8234771757529475
42
4.4597077377312875
0
ELLIPSE
5
419
100
AcDbEntity
8
0
100
AcDbEllipse
10
3.2500000484287739
20
0
30
0
11
-1.0430812835693359e-07
21
1.0000000149011612
31
0.0
40
0.49999999999999523
41
1.5707963267948966
42
1.5715145794572523
0
ELLIPSE
5
420
100
AcDbEntity
8
0
100
AcDbEllipse
10
-5.6250000838190291
20
9.7427859377537587
30
0
11
-0.86602513529918457
21
-0.49999996543458625
31
0.0
40
0.48715876427745869
41
1.823477554310744
42
7.6013012596729252
0
LINE
5
421
100
AcDbEntity
8
0
100
AcDbLine
10
-5.1567710729226119
20
9.431791419613333
30
0
11
-5.1726482761384815
21
9.4592915483050195
31
0
0
ELLIPSE
5
422
100
AcDbEntity
8
0
100
AcDbEllipse
10
-3.6250000540167076
20
6.2786842709968669
30
0
11
-0.86602536453515877
21
-0.5000000977840694
31
0.0
40
0.5128413027517611
41
4.7117597888415039
42
4.7123888239224998
0
LINE
5
423
100
AcDbEntity
8
0
100
AcDbLine
10
-4.089785218256476
20
6.5837143125875883
30
0
11
-4.113600997744884
21
6.6249644427466521
31
0
0
ELLIPSE
5
424
100
AcDbEntity
8
0
100
AcDbEllipse
10
-3.6250000540167076
20
6.2786842709968669
30
0
11
-0.86602536453515877
21
-0.5000000977840694
31
0.0
40
0.5128413027517611
41
4.9650699411515919
42
7.6013006732075796
0
ELLIPSE
5
425
100
AcDbEntity
8
0
100
AcDbEllipse
10
-3.1260329091891217
20
5.4144478248479082
30
0
11
-0.86499250191216503
21
-0.50178906832433467
31
0.0
40
0.48509322946503791
41
4.9640676349747839
42
7.6002988414239683
0
ELLIPSE
5
426
100
AcDbEntity
8
0
100
AcDbEllipse
10
-2.3792527409012978
20
4.1209866312885604
30
0
11
0.50425311431864972
21
-0.87339180348398637
31
0.0
40
0.99160157708368535
41
3.3942640069086316
42
6.0305139538607486
0
LINE
5
427
100
AcDbEntity
8
0
100
AcDbLine
10
-4.6363990169279514
20
8.5304803818415014
30
0
11
-4.6602148113746056
21
8.5717305569052726
31
0
0
ARC
5
428
100
AcDbEntity
8
0
100
AcDbCircle
10
0.69999993592500687
20
0
30
0
40
0.2500000037252903
210
0
220
-0
230
1
100
AcDbArc
50
90
51
270.00000052757468
0
LINE
5
429
100
AcDbEntity
8
0
100
AcDbLine
10
0.69999993592500687
20
0.2500000037252903
30
0
11
1.7658770940678532
21
0.25000000372529035
31
0
0
ELLIPSE
5
430
100
AcDbEntity
8
0
100
AcDbEllipse
10
-2.3792527409012978
20
4.1209866312885604
30
0
11
0.50425311431864983
21
-0.87339180348398648
31
0.0
40
0.99160157708368513
41
0.25267111362712824
42
2.8889211377681887
0
ELLIPSE
5
431
100
AcDbEntity
8
0
100
AcDbEllipse
10
6.252065818378246
20
0
30
0
11
-0.0020658295541169398
21
1.0000000149011621
31
0.0
40
0.4850932294650378
41
4.9640676349747848
42
7.6002988414239692
0
ELLIPSE
5
432
100
AcDbEntity
8
0
100
AcDbEllipse
10
-5.1250000763684485
20
8.8767605210645346
30
0
11
-0.86602536453515877
21
-0.5000000977840694
31
0.0
40
0.51284130275175599
41
4.9650691820331021
42
7.601300350020594
0
LINE
5
433
100
AcDbEntity
8
0
100
AcDbLine
10
3.7341229562253737
20
-0.25000029227103121
30
0
11
3.7820214225055064
21
-0.25000029682618552
31
0
0
LINE
5
434
100
AcDbEntity
8
0
100
AcDbLine
10
0.6999999382269857
20
-0.2500000037252903
30
0
11
1.765877135093723
21
-0.25000010509043724
31
0
0
LINE
5
435
100
AcDbEntity
8
0
100
AcDbLine
10
2.7341229480136628
20
-0.25000019717081889
30
0
11
2.7658771678602223
21
-0.25000020019065183
31
0
0
LINE
5
436
100
AcDbEntity
8
0
100
AcDbLine
10
5.7349894918534536
20
-0.25000048255386215
30
0
11
5.7827695151587744
21
-0.25000048709775252
31
0
0
ELLIPSE
5
437
100
AcDbEntity
8
0
100
AcDbEllipse
10
2.2500000335276127
20
0
30
0
11
-7.4505805969238281e-08
21
1.0000000149011612
31
0.0
40
0.49999999999999789
41
1.8234766493735461
42
4.4597084882000235
0
ELLIPSE
5
438
100
AcDbEntity
8
0
100
AcDbEllipse
10
7.2500001080334187
20
0
30
0
11
-1.0430812835693359e-07
21
1.0000000149011612
31
0.0
40
0.5128413027517611
41
1.8234771230071538
42
4.4597079796427685
0
LINE
5
439
100
AcDbEntity
8
0
100
AcDbLine
10
-5.5897854361199348
20
-9.1817904604583838
30
0
11
-5.6056626445663404
21
-9.2092905861302157
31
0
0
ELLIPSE
5
440
100
AcDbEntity
8
0
100
AcDbEllipse
10
-5.1250000763684538
20
-8.8767605210645311
30
0
11
0.86602546884328679
21
-0.49999991711709185
31
0.0
40
0.51284130275175532
41
1.5707963267948961
42
1.5715117019295637
0
ELLIPSE
5
441
100
AcDbEntity
8
0
100
AcDbEllipse
10
-5.6250000838190344
20
-9.7427859377537533
30
0
11
0.86602546884328679
21
-0.49999991711709185
31
0.0
40
0.48715869724823724
41
1.5707963267948972
42
1.5715142086148872
0
ELLIPSE
5
442
100
AcDbEntity
8
0
100
AcDbEllipse
10
-5.6250000838190344
20
-9.7427859377537533
30
0
11
0.86602523960728495
21
-0.49999978476765622
31
0.0
40
0.48715876427745869
41
1.8234775543107431
42
7.6013012596729279
0
ELLIPSE
5
443
100
AcDbEntity
8
0
100
AcDbEllipse
10
-5.1250000763684538
20
-8.8767605210645311
30
0
11
0.86602546884328679
21
-0.49999991711709185
31
0.0
40
0.51284130275175532
41
1.8234774176644433
42
4.4597076849854806
0
LINE
5
444
100
AcDbEntity
8
0
100
AcDbLine
10
-5.1567719443872413
20
-9.4317910181750246
30
0
11
-5.1726490601520778
21
-9.459290989357374
31
0
0
ELLIPSE
5
445
100
AcDbEntity
8
0
100
AcDbEllipse
10
-5.1250000763684538
20
-8.8767605210645311
30
0
11
0.86602546884328679
21
-0.49999991711709185
31
0.0
40
0.51284130275175599
41
4.9650691820331003
42
7.6013003500205949
0
LINE
5
446
100
AcDbEntity
8
0
100
AcDbLine
10
-4.6363989338794767
20
-8.5304804038468198
30
0
11
-4.6602147254804596
21
-8.5717305748589201
31
0
0
ELLIPSE
5
447
100
AcDbEntity
8
0
100
AcDbEllipse
10
-5.1250000763684538
20
-8.8767605210645311
30
0
11
0.86602546884328679
21
-0.49999991711709185
31
0.0
40
0.51284130275175532
41
4.7119625110544536
42
4.7123888760765613
0
ELLIPSE
5
448
100
AcDbEntity
8
0
100
AcDbEllipse
10
-4.3750000651925784
20
7.5777223960307012
30
0
11
-0.86602536453515877
21
-0.5000000977840694
31
0.0
40
0.98715869724823535
41
4.7118711188060285
42
4.7123888239225007
0
ELLIPSE
5
449
100
AcDbEntity
8
0
100
AcDbEllipse
10
-4.3750000651925784
20
7.5777223960307012
30
0
11
-0.86602536453515877
21
-0.5000000977840694
31
0.0
40
0.98715869724823535
41
4.9650701027450816
42
7.6013005116140926
0
ELLIPSE
5
450
100
AcDbEntity
8
0
100
AcDbEllipse
10
-3.6250000540167076
20
6.2786842709968669
30
0
11
-0.86602536453515877
21
-0.5000000977840694
31
0.0
40
0.5128413027517611
41
1.569727514330721
42
1.5750227029213688
0
ELLIPSE
5
451
100
AcDbEntity
8
0
100
AcDbEllipse
10
-5.1250000763684485
20
8.8767605210645346
30
0
11
-0.86602536453515877
21
-0.5000000977840694
31
0.0
40
0.51284130275175543
41
1.5707963267948961
42
1.5715117019295646
0
LINE
5
452
100
AcDbEntity
8
0
100
AcDbLine
10
-2.6509879770767126
20
5.0916468316588315
30
0
11
-2.6748779847942483
21
5.1330255479065974
31
0
0
ELLIPSE
5
453
100
AcDbEntity
8
0
100
AcDbEllipse
10
-3.1260329091891217
20
5.4144478248479082
30
0
11
-0.86499250191216492
21
-0.50178906832433456
31
0.0
40
0.48509322946503797
41
1.5611919233778979
42
1.5762124183908315
0
ELLIPSE
5
454
100
AcDbEntity
8
0
100
AcDbEllipse
10
-3.6250000540167076
20
6.2786842709968669
30
0
11
-0.86602536453515877
21
-0.5000000977840694
31
0.0
40
0.5128413027517611
41
1.8234771230071543
42
4.4597079796427685
0
ELLIPSE
5
455
100
AcDbEntity
8
0
100
AcDbEllipse
10
-5.1250000763684485
20
8.8767605210645346
30
0
11
-0.86602536453515877
21
-0.5000000977840694
31
0.0
40
0.51284130275175543
41
4.7119625110544519
42
4.7123888760765613
0
ELLIPSE
5
456
100
AcDbEntity
8
0
100
AcDbEllipse
10
-4.3750000651925784
20
7.5777223960307012
30
0
11
-0.86602536453515877
21
-0.5000000977840694
31
0.0
40
0.98715869724823535
41
1.5707963267948963
42
1.5718676447761841
0
ELLIPSE
5
457
100
AcDbEntity
8
0
100
AcDbEllipse
10
-5.6250000838190291
20
9.7427859377537587
30
0
11
-0.86602536453515877
21
-0.5000000977840694
31
0.0
40
0.48715869724823724
41
1.5707963267948979
42
1.5715142086148872
0
ELLIPSE
5
458
100
AcDbEntity
8
0
100
AcDbEllipse
10
-5.1250000763684485
20
8.8767605210645346
30
0
11
-0.86602536453515877
21
-0.5000000977840694
31
0.0
40
0.51284130275175543
41
1.8234774176644442
42
4.4597076849854798
0
LINE
5
459
100
AcDbEntity
8
0
100
AcDbLine
10
-5.0694132692769465
20
8.280479460742125
30
0
11
-5.0932290694833853
21
8.3217296267858618
31
0
0
LINE
5
460
100
AcDbEntity
8
0
100
AcDbLine
10
-2.8834853205950091
20
4.9943432097469582
30
0
11
-2.8835057071354395
21
4.9943785202691808
31
0
0
LINE
5
461
100
AcDbEntity
8
0
100
AcDbLine
10
-3.0840015493350403
20
4.841646316238192
30
0
11
-3.1074966463563349
21
4.8823410082049188
31
0
0
CIRCLE
5
462
100
AcDbEntity
8
0
100
AcDbCircle
10
0.69999993592500687
20
0
30
0
40
0.24999983422458169
210
0
220
-0
230
1
0
ELLIPSE
5
463
100
AcDbEntity
8
0
100
AcDbEllipse
10
-3.6250000540167111
20
-6.2786842709968633
30
0
11
0.86602546884328679
21
-0.49999991711709185
31
0.0
40
0.5128413027517611
41
1.5697275143307219
42
1.5750227029213693
0
ELLIPSE
5
464
100
AcDbEntity
8
0
100
AcDbEllipse
10
-3.6250000540167111
20
-6.2786842709968633
30
0
11
0.86602546884328679
21
-0.49999991711709185
31
0.0
40
0.5128413027517611
41
4.711759788841503
42
4.7123888239224989
0
LINE
5
465
100
AcDbEntity
8
0
100
AcDbLine
10
-4.0897851855797009
20
-6.5837143857579266
30
0
11
-4.1136009335143564
21
-6.6249644621414738
31
0
0
ELLIPSE
5
466
100
AcDbEntity
8
0
100
AcDbEllipse
10
-2.3792527409012996
20
-4.1209866312885577
30
0
11
0.50425293211491351
21
0.87339190867936245
31
0.0
40
0.99160157708368535
41
3.135177925786806
42
3.1501237461994824
0
ELLIPSE
5
467
100
AcDbEntity
8
0
100
AcDbEllipse
10
-4.375000065192582
20
-7.5777223960306967
30
0
11
0.86602546884328679
21
-0.49999991711709185
31
0.0
40
0.98715869724823513
41
4.7118711188060267
42
4.7123888239224998
0
ELLIPSE
5
468
100
AcDbEntity
8
0
100
AcDbEllipse
10
-4.375000065192582
20
-7.5777223960306967
30
0
11
0.86602546884328679
21
-0.49999991711709185
31
0.0
40
0.98715869724823513
41
1.5707963267948972
42
1.5718676447761841
0
LINE
5
469
100
AcDbEntity
8
0
100
AcDbLine
10
-2.6509879313341003
20
-5.0916468451538082
30
0
11
-2.6744830198658205
21
-5.132341542021992
31
0
0
LINE
5
470
100
AcDbEntity
8
0
100
AcDbLine
10
9.7058122031564231
20
0.25000094310469823
30
0
11
9.7534437949638448
21
0.25000094807306039
31
0
0
ELLIPSE
5
471
100
AcDbEntity
8
0
100
AcDbEllipse
10
7.2500001080334187
20
0
30
0
11
-1.0430812835693359e-07
21
1.0000000149011612
31
0.0
40
0.5128413027517611
41
1.5697275143307219
42
1.5750227029213697
0
ELLIPSE
5
472
100
AcDbEntity
8
0
100
AcDbEllipse
10
8.7500001303851604
20
0
30
0
11
-1.0430812835693359e-07
21
1.0000000149011612
31
0.0
40
0.98715869724823513
41
4.9650701027450808
42
7.6013005116140926
0
ELLIPSE
5
473
100
AcDbEntity
8
0
100
AcDbEllipse
10
2.2500000335276127
20
0
30
0
11
-7.4505805969238281e-08
21
1.0000000149011612
31
0.0
40
0.49999999999999778
41
4.9650694174078431
42
7.6013013415795019
0
ELLIPSE
5
474
100
AcDbEntity
8
0
100
AcDbEllipse
10
10.250000152736902
20
0
30
0
11
-1.0430812835693359e-07
21
1.0000000149011612
31
0.0
40
0.51284130275175543
41
4.7119625110544536
42
4.7123888760765631
0
LINE
5
475
100
AcDbEntity
8
0
100
AcDbLine
10
7.7465564550882915
20
0.25000073873840123
30
0
11
7.7941880054596595
21
0.25000074370675907
31
0
0
ELLIPSE
5
476
100
AcDbEntity
8
0
100
AcDbEllipse
10
7.2500001080334187
20
0
30
0
11
-1.0430812835693359e-07
21
1.0000000149011612
31
0.0
40
0.5128413027517611
41
4.9650699411515919
42
7.6013006732075805
0
ELLIPSE
5
477
100
AcDbEntity
8
0
100
AcDbEllipse
10
6.252065818378246
20
0
30
0
11
-0.0020658295541169402
21
1.0000000149011623
31
0.0
40
0.48509322946503769
41
4.7072128596644722
42
4.7124305261750559
0
ELLIPSE
5
478
100
AcDbEntity
8
0
100
AcDbEllipse
10
8.7500001303851604
20
0
30
0
11
-1.0430812835693359e-07
21
1.0000000149011612
31
0.0
40
0.98715869724823513
41
4.7118711188060285
42
4.7123888239224989
0
ELLIPSE
5
479
100
AcDbEntity
8
0
100
AcDbEllipse
10
2.2500000335276127
20
0
30
0
11
-7.4505805969238281e-08
21
1.0000000149011612
31
0.0
40
0.49999999999999789
41
4.7119698354831474
42
4.7123888909777243
0
LINE
5
480
100
AcDbEntity
8
0
100
AcDbLine
10
3.7341229135030005
20
0.25000032020897461
30
0
11
3.7820214307819016
21
0.25000032520517923
31
0
0
ELLIPSE
5
481
100
AcDbEntity
8
0
100
AcDbEllipse
10
7.2500001080334187
20
0
30
0
11
-1.0430812835693359e-07
21
1.0000000149011612
31
0.0
40
0.5128413027517611
41
4.7117597888415039
42
4.7123888239224989
0
ELLIPSE
5
482
100
AcDbEntity
8
0
100
AcDbEllipse
10
10.250000152736902
20
0
30
0
11
-1.0430812835693359e-07
21
1.0000000149011612
31
0.0
40
0.51284130275175543
41
1.5707963267948966
42
1.571511701929565
0
ELLIPSE
5
483
100
AcDbEntity
8
0
100
AcDbEllipse
10
10.250000152736902
20
0
30
0
11
-1.043081283569337e-07
21
1.0000000149011612
31
0.0
40
0.51284130275175599
41
4.9650691820331012
42
7.6013003500205958
0
ELLIPSE
5
484
100
AcDbEntity
8
0
100
AcDbEllipse
10
11.250000167638063
20
0
30
0
11
-1.0430812835693359e-07
21
1.0000000149011612
31
0.0
40
0.48715869724823713
41
1.5707963267948966
42
1.5715142086148859
0
ELLIPSE
5
485
100
AcDbEntity
8
0
100
AcDbEllipse
10
4.7585054818025974
20
0
30
0
11
-1.0085060464335631
21
-1.0519537644664052e-07
31
0.0
40
0.99160157708368557
41
3.3942640069086316
42
6.0305139538607477
0
LINE
5
486
100
AcDbEntity
8
0
100
AcDbLine
10
5.7669707551566827
20
-6.5798682965948277e-08
30
0
11
5.7670115282361643
21
-6.5797886561706459e-08
31
0
0
ELLIPSE
5
487
100
AcDbEntity
8
0
100
AcDbEllipse
10
3.2500000484287739
20
0
30
0
11
-1.0430812835693359e-07
21
1.0000000149011612
31
0.0
40
0.49999999999999534
41
4.965069510235657
42
7.6013011041235155
0
ELLIPSE
5
488
100
AcDbEntity
8
0
100
AcDbEllipse
10
8.7500001303851604
20
0
30
0
11
-1.0430812835693359e-07
21
1.0000000149011612
31
0.0
40
0.98715869724823513
41
1.5707963267948966
42
1.5718676447761843
0
LINE
5
489
100
AcDbEntity
8
0
100
AcDbLine
10
5.7349894806691406
20
0.25000052891561819
30
0
11
5.7819796662221554
21
0.25000053381707632
31
0
0
ELLIPSE
5
490
100
AcDbEntity
8
0
100
AcDbEllipse
10
6.252065818378246
20
0
30
0
11
-0.0020658295541169393
21
1.0000000149011619
31
0.0
40
0.48509322946503786
41
1.5611919233778973
42
1.5762124183908317
0
LINE
5
491
100
AcDbEntity
8
0
100
AcDbLine
10
10.74655659711909
20
0.25000000372529074
30
0
11
10.778310828648763
21
0.2500000037252908
31
0
0
LINE
5
492
100
AcDbEntity
8
0
100
AcDbLine
10
2.7341229176559239
20
0.25000021590084831
30
0
11
2.765877131200428
21
0.25000021921307075
31
0
0
ELLIPSE
5
493
100
AcDbEntity
8
0
100
AcDbEllipse
10
4.7585054818025974
20
0
30
0
11
-1.0085060464335633
21
-1.0519537644664052e-07
31
0.0
40
0.99160157708368535
41
3.135177925786806
42
3.1501237461994833
0
LINE
5
494
100
AcDbEntity
8
0
100
AcDbLine
10
6.7213621032447133
20
0.2500006318022987
30
0
11
6.7534437088243395
21
0.25000063514867099
31
0
0
LINE
5
495
100
AcDbEntity
8
0
100
AcDbLine
10
-6.6830127865757101
20
-10.575317679080422
30
0
11
-5.8169018233668357
21
-11.075169495190078
31
0
0
LINE
5
496
100
AcDbEntity
8
0
100
AcDbLine
10
-5.8169873698864825
20
11.075317686531008
30
0
11
-6.6829272223696687
21
10.575169497950741
31
0
0
ENDSEC
0
SECTION
2
OBJECTS
0
DICTIONARY
5
C
100
AcDbDictionary
3
ACAD_GROUP
350
D
3
ACAD_MLINESTYLE
350
17
0
DICTIONARY
5
D
100
AcDbDictionary
0
DICTIONARY
5
1A
330
C
100
AcDbDictionary
0
DICTIONARY
5
17
100
AcDbDictionary
0
ENDSEC
0
EOF
