0
SECTION
2
HEADER
9
$INSUNITS
70
5
9
$ACADVER
1
AC1014
9
$HANDSEED
5
FFFF
0
ENDSEC
0
SECTION
2
TABLES
0
TABLE
2
VPORT
5
8
100
AcDbSymbolTable
0
ENDTAB
0
TABLE
2
LTYPE
5
5
100
AcDbSymbolTable
0
LTYPE
5
14
100
AcDbSymbolTableRecord
100
AcDbLinetypeTableRecord
2
BYBLOCK
70
0
0
LTYPE
5
15
100
AcDbSymbolTableRecord
100
AcDbLinetypeTableRecord
2
BYLAYER
70
0
0
ENDTAB
0
TABLE
2
LAYER
5
2
100
AcDbSymbolTable
70
2
0
LAYER
5
50
100
AcDbSymbolTableRecord
100
AcDbLayerTableRecord
2
0
70
0
6
CONTINUOUS
0
ENDTAB
0
TABLE
2
STYLE
5
3
100
AcDbSymbolTable
70
1
0
STYLE
5
11
100
AcDbSymbolTableRecord
100
AcDbTextStyleTableRecord
2
STANDARD
70
0
0
ENDTAB
0
TABLE
2
VIEW
5
6
100
AcDbSymbolTable
70
0
0
ENDTAB
0
TABLE
2
UCS
5
7
100
AcDbSymbolTable
70
0
0
ENDTAB
0
TABLE
2
APPID
5
9
100
AcDbSymbolTable
70
2
0
APPID
5
12
100
AcDbSymbolTableRecord
100
AcDbRegAppTableRecord
2
ACAD
70
0
0
ENDTAB
0
TABLE
2
DIMSTYLE
5
A
100
AcDbSymbolTable
70
1
0
ENDTAB
0
TABLE
2
BLOCK_RECORD
5
1
100
AcDbSymbolTable
70
1
0
BLOCK_RECORD
5
1F
100
AcDbSymbolTableRecord
100
AcDbBlockTableRecord
2
*MODEL_SPACE
0
BLOCK_RECORD
5
1B
100
AcDbSymbolTableRecord
100
AcDbBlockTableRecord
2
*PAPER_SPACE
0
ENDTAB
0
ENDSEC
0
SECTION
2
BLOCKS
0
BLOCK
5
20
100
AcDbEntity
100
AcDbBlockBegin
2
*MODEL_SPACE
0
ENDBLK
5
21
100
AcDbEntity
100
AcDbBlockEnd
0
BLOCK
5
1C
100
AcDbEntity
100
AcDbBlockBegin
2
*PAPER_SPACE
0
ENDBLK
5
1D
100
AcDbEntity
100
AcDbBlockEnd
0
ENDSEC
0
SECTION
2
ENTITIES
0
LINE
5
100
100
AcDbEntity
8
0
100
AcDbLine
10
0.36602540378442328
20
2.3660254037844699
30
0
11
-2.23178325051627
21
0.86602538311920441
31
0
0
LINE
5
101
100
AcDbEntity
8
0
100
AcDbLine
10
-2.23178325051627
20
0.86602538311920441
30
0
11
-1.7320508186810124
21
-1.3725465097813583e-08
31
0
0
LINE
5
102
100
AcDbEntity
8
0
100
AcDbLine
10
-1.7320508186810124
20
-1.3725465097813583e-08
30
0
11
-2.2320508075688972
21
-0.86602540378446702
31
0
0
LINE
5
103
100
AcDbEntity
8
0
100
AcDbLine
10
-2.2320508075688972
20
-0.86602540378446702
30
0
11
0.3661292886612505
21
-2.3659088572786695
31
0
0
LINE
5
104
100
AcDbEntity
8
0
100
AcDbLine
10
0.3661292886612505
20
-2.3659088572786695
30
0
11
0.86602542122710746
21
-1.5000000027606584
31
0
0
LINE
5
105
100
AcDbEntity
8
0
100
AcDbLine
10
0.86602542122710746
20
-1.5000000027606584
30
0
11
1.8660254037844739
21
-1.5000000000000018
31
0
0
LINE
5
106
100
AcDbEntity
8
0
100
AcDbLine
10
1.8660254037844739
20
-1.5000000000000018
30
0
11
1.8658916073615177
21
1.4997682991280981
31
0
0
LINE
5
107
100
AcDbEntity
8
0
100
AcDbLine
10
1.8658916073615177
20
1.4997682991280981
30
0
11
0.86602539745390428
21
1.500000016486124
31
0
0
LINE
5
108
100
AcDbEntity
8
0
100
AcDbLine
10
0.86602539745390428
20
1.500000016486124
30
0
11
0.36602540378442328
21
2.3660254037844699
31
0
0
CIRCLE
5
109
100
AcDbEntity
8
0
100
AcDbCircle
10
0.70000001043081284
20
0
30
0
40
0.34999999999999998
210
0
220
0
230
1
0
CIRCLE
5
110
100
AcDbEntity
8
0
100
AcDbCircle
10
-0.35000000521540625
20
0.60621779168245604
30
0
40
0.34999999999999998
210
0
220
0
230
1
0
CIRCLE
5
111
100
AcDbEntity
8
0
100
AcDbCircle
10
-0.35000000521540658
20
-0.60621779168245571
30
0
40
0.34999999999999998
210
0
220
0
230
1
0
LWPOLYLINE
5
112
100
AcDbEntity
8
0
100
AcDbPolyline
90
4
70
1
43
0.0
10
1.0500000156462193
20
-0.45000000670552254
10
1.650000024586916
20
-0.45000000670552254
10
1.650000024586916
20
-0.30000000447034836
10
1.0500000156462193
20
-0.30000000447034836
0
LWPOLYLINE
5
113
100
AcDbEntity
8
0
100
AcDbPolyline
90
4
70
1
43
0.0
10
1.0500000156462193
20
0.30000000447034836
10
1.650000024586916
20
0.30000000447034836
10
1.650000024586916
20
0.45000000670552254
10
1.0500000156462193
20
0.45000000670552254
0
LWPOLYLINE
5
114
100
AcDbEntity
8
0
100
AcDbPolyline
90
4
70
1
43
0.0
10
-0.1352885703129591
20
1.1343266908764451
10
-0.43528857478330735
20
1.6539419408899789
10
-0.56519238728669075
20
1.5789419397723921
10
-0.2651923828163425
20
1.0593266897588582
0
LWPOLYLINE
5
115
100
AcDbEntity
8
0
100
AcDbPolyline
90
4
70
1
43
0.0
10
-0.78480763282987631
20
0.75932668528850988
10
-1.0848076373002247
20
1.2789419353020437
10
-1.214711449803608
20
1.2039419341844568
10
-0.91471144533325965
20
0.68432668417092291
0
LWPOLYLINE
5
116
100
AcDbEntity
8
0
100
AcDbPolyline
90
4
70
1
43
0.0
10
-0.91471144533325999
20
-0.68432668417092224
10
-1.2147114498036085
20
-1.2039419341844559
10
-1.0848076373002251
20
-1.278941935302043
10
-0.78480763282987653
20
-0.75932668528850944
0
LWPOLYLINE
5
117
100
AcDbEntity
8
0
100
AcDbPolyline
90
4
70
1
43
0.0
10
-0.26519238281634311
20
-1.0593266897588578
10
-0.56519238728669152
20
-1.5789419397723914
10
-0.43528857478330818
20
-1.6539419408899785
10
-0.13528857031295971
20
-1.1343266908764451
0
ENDSEC
0
SECTION
2
OBJECTS
0
DICTIONARY
5
C
100
AcDbDictionary
3
ACAD_GROUP
350
D
3
ACAD_MLINESTYLE
350
17
0
DICTIONARY
5
D
100
AcDbDictionary
0
DICTIONARY
5
1A
330
C
100
AcDbDictionary
0
DICTIONARY
5
17
100
AcDbDictionary
0
ENDSEC
0
EOF
