0
SECTION
2
HEADER
9
$INSUNITS
70
5
9
$ACADVER
1
AC1014
9
$HANDSEED
5
FFFF
0
ENDSEC
0
SECTION
2
TABLES
0
TABLE
2
VPORT
5
8
100
AcDbSymbolTable
0
ENDTAB
0
TABLE
2
LTYPE
5
5
100
AcDbSymbolTable
0
LTYPE
5
14
100
AcDbSymbolTableRecord
100
AcDbLinetypeTableRecord
2
BYBLOCK
70
0
0
LTYPE
5
15
100
AcDbSymbolTableRecord
100
AcDbLinetypeTableRecord
2
BYLAYER
70
0
0
ENDTAB
0
TABLE
2
LAYER
5
2
100
AcDbSymbolTable
70
2
0
LAYER
5
50
100
AcDbSymbolTableRecord
100
AcDbLayerTableRecord
2
0
70
0
6
CONTINUOUS
0
ENDTAB
0
TABLE
2
STYLE
5
3
100
AcDbSymbolTable
70
1
0
STYLE
5
11
100
AcDbSymbolTableRecord
100
AcDbTextStyleTableRecord
2
STANDARD
70
0
0
ENDTAB
0
TABLE
2
VIEW
5
6
100
AcDbSymbolTable
70
0
0
ENDTAB
0
TABLE
2
UCS
5
7
100
AcDbSymbolTable
70
0
0
ENDTAB
0
TABLE
2
APPID
5
9
100
AcDbSymbolTable
70
2
0
APPID
5
12
100
AcDbSymbolTableRecord
100
AcDbRegAppTableRecord
2
ACAD
70
0
0
ENDTAB
0
TABLE
2
DIMSTYLE
5
A
100
AcDbSymbolTable
70
1
0
ENDTAB
0
TABLE
2
BLOCK_RECORD
5
1
100
AcDbSymbolTable
70
1
0
BLOCK_RECORD
5
1F
100
AcDbSymbolTableRecord
100
AcDbBlockTableRecord
2
*MODEL_SPACE
0
BLOCK_RECORD
5
1B
100
AcDbSymbolTableRecord
100
AcDbBlockTableRecord
2
*PAPER_SPACE
0
ENDTAB
0
ENDSEC
0
SECTION
2
BLOCKS
0
BLOCK
5
20
100
AcDbEntity
100
AcDbBlockBegin
2
*MODEL_SPACE
0
ENDBLK
5
21
100
AcDbEntity
100
AcDbBlockEnd
0
BLOCK
5
1C
100
AcDbEntity
100
AcDbBlockBegin
2
*PAPER_SPACE
0
ENDBLK
5
1D
100
AcDbEntity
100
AcDbBlockEnd
0
ENDSEC
0
SECTION
2
ENTITIES
0
CIRCLE
5
100
100
AcDbEntity
8
0
100
AcDbCircle
10
0.69999993592500687
20
0
30
0
40
0.24999983422458169
210
0
220
-0
230
1
0
ELLIPSE
5
101
100
AcDbEntity
8
0
100
AcDbEllipse
10
2.2500000335276127
20
0
30
0
11
-7.4505805969238281e-08
21
1.0000000149011612
31
0.0
40
0.49999999999999778
41
4.9650694174078431
42
7.6013013415795019
0
ELLIPSE
5
102
100
AcDbEntity
8
0
100
AcDbEllipse
10
3.2500000484287739
20
0
30
0
11
-1.0430812835693359e-07
21
1.0000000149011612
31
0.0
40
0.49999999999999523
41
1.5707963267948966
42
1.5715145794572523
0
ELLIPSE
5
103
100
AcDbEntity
8
0
100
AcDbEllipse
10
2.2500000335276127
20
0
30
0
11
-7.4505805969238281e-08
21
1.0000000149011612
31
0.0
40
0.49999999999999789
41
1.8234766493735461
42
4.4597084882000235
0
ELLIPSE
5
104
100
AcDbEntity
8
0
100
AcDbEllipse
10
2.2500000335276127
20
0
30
0
11
-7.4505805969238281e-08
21
1.0000000149011612
31
0.0
40
0.49999999999999789
41
4.7119698354831474
42
4.7123888909777243
0
ARC
5
105
100
AcDbEntity
8
0
100
AcDbCircle
10
0.69999993592500687
20
0
30
0
40
0.2500000037252903
210
0
220
-0
230
1
100
AcDbArc
50
90
51
270.00000052757468
0
ELLIPSE
5
106
100
AcDbEntity
8
0
100
AcDbEllipse
10
3.2500000484287739
20
0
30
0
11
-1.0430812835693359e-07
21
1.0000000149011612
31
0.0
40
0.49999999999999534
41
1.8234767326914667
42
4.4597083750797815
0
ELLIPSE
5
107
100
AcDbEntity
8
0
100
AcDbEllipse
10
3.2500000484287739
20
0
30
0
11
-1.0430812835693359e-07
21
1.0000000149011612
31
0.0
40
0.49999999999999534
41
4.965069510235657
42
7.6013011041235155
0
ELLIPSE
5
108
100
AcDbEntity
8
0
100
AcDbEllipse
10
4.7585054818025974
20
0
30
0
11
-1.0085060464335631
21
-1.0519537644664051e-07
31
0.0
40
0.99160157708368557
41
3.3942640069086316
42
6.0305139538607477
0
ELLIPSE
5
109
100
AcDbEntity
8
0
100
AcDbEllipse
10
6.252065818378246
20
0
30
0
11
-0.0020658295541169389
21
1.0000000149011616
31
0.0
40
0.48509322946503786
41
1.5611919233778973
42
1.5762124183908317
0
ELLIPSE
5
110
100
AcDbEntity
8
0
100
AcDbEllipse
10
4.7585054818025974
20
0
30
0
11
-1.0085060464335633
21
-1.0519537644664052e-07
31
0.0
40
0.99160157708368535
41
0.25267111362712846
42
2.8889211377681887
0
ELLIPSE
5
111
100
AcDbEntity
8
0
100
AcDbEllipse
10
4.7585054818025974
20
0
30
0
11
-1.0085060464335633
21
-1.0519537644664052e-07
31
0.0
40
0.99160157708368535
41
3.135177925786806
42
3.1501237461994833
0
LINE
5
112
100
AcDbEntity
8
0
100
AcDbLine
10
5.7669707551566827
20
-6.5798682965948277e-08
30
0
11
5.7670115282361643
21
-6.5797886561706459e-08
31
0
0
ELLIPSE
5
113
100
AcDbEntity
8
0
100
AcDbEllipse
10
6.252065818378246
20
0
30
0
11
-0.0020658295541169393
21
1.0000000149011619
31
0.0
40
0.4850932294650378
41
4.9640676349747848
42
7.6002988414239683
0
ELLIPSE
5
114
100
AcDbEntity
8
0
100
AcDbEllipse
10
7.2500001080334187
20
0
30
0
11
-1.0430812835693359e-07
21
1.0000000149011612
31
0.0
40
0.5128413027517611
41
1.5697275143307219
42
1.5750227029213697
0
ELLIPSE
5
115
100
AcDbEntity
8
0
100
AcDbEllipse
10
6.252065818378246
20
0
30
0
11
-0.0020658295541169398
21
1.0000000149011621
31
0.0
40
0.48509322946503775
41
1.8224748319348396
42
4.458706143820427
0
ELLIPSE
5
116
100
AcDbEntity
8
0
100
AcDbEllipse
10
6.252065818378246
20
0
30
0
11
-0.0020658295541169398
21
1.0000000149011621
31
0.0
40
0.48509322946503775
41
4.7072128596644722
42
4.7124305261750559
0
ELLIPSE
5
117
100
AcDbEntity
8
0
100
AcDbEllipse
10
7.2500001080334187
20
0
30
0
11
-1.0430812835693359e-07
21
1.0000000149011612
31
0.0
40
0.5128413027517611
41
4.9650699411515919
42
7.6013006732075805
0
ELLIPSE
5
118
100
AcDbEntity
8
0
100
AcDbEllipse
10
8.7500001303851604
20
0
30
0
11
-1.0430812835693359e-07
21
1.0000000149011612
31
0.0
40
0.98715869724823513
41
1.5707963267948966
42
1.5718676447761843
0
ELLIPSE
5
119
100
AcDbEntity
8
0
100
AcDbEllipse
10
7.2500001080334187
20
0
30
0
11
-1.0430812835693359e-07
21
1.0000000149011612
31
0.0
40
0.5128413027517611
41
1.8234771230071538
42
4.4597079796427685
0
ELLIPSE
5
120
100
AcDbEntity
8
0
100
AcDbEllipse
10
7.2500001080334187
20
0
30
0
11
-1.0430812835693359e-07
21
1.0000000149011612
31
0.0
40
0.5128413027517611
41
4.7117597888415039
42
4.7123888239224989
0
ELLIPSE
5
121
100
AcDbEntity
8
0
100
AcDbEllipse
10
8.7500001303851604
20
0
30
0
11
-1.0430812835693359e-07
21
1.0000000149011612
31
0.0
40
0.98715869724823513
41
4.9650701027450808
42
7.6013005116140926
0
ELLIPSE
5
122
100
AcDbEntity
8
0
100
AcDbEllipse
10
10.250000152736902
20
0
30
0
11
-1.0430812835693359e-07
21
1.0000000149011612
31
0.0
40
0.51284130275175543
41
1.5707963267948966
42
1.571511701929565
0
ELLIPSE
5
123
100
AcDbEntity
8
0
100
AcDbEllipse
10
8.7500001303851604
20
0
30
0
11
-1.0430812835693359e-07
21
1.0000000149011612
31
0.0
40
0.98715869724823513
41
1.823477175752948
42
4.4597077377312866
0
ELLIPSE
5
124
100
AcDbEntity
8
0
100
AcDbEllipse
10
8.7500001303851604
20
0
30
0
11
-1.0430812835693359e-07
21
1.0000000149011612
31
0.0
40
0.98715869724823513
41
4.7118711188060285
42
4.7123888239224989
0
ELLIPSE
5
125
100
AcDbEntity
8
0
100
AcDbEllipse
10
10.250000152736902
20
0
30
0
11
-1.043081283569337e-07
21
1.0000000149011612
31
0.0
40
0.51284130275175599
41
4.9650691820331012
42
7.6013003500205958
0
ELLIPSE
5
126
100
AcDbEntity
8
0
100
AcDbEllipse
10
11.250000167638063
20
0
30
0
11
-1.0430812835693359e-07
21
1.0000000149011612
31
0.0
40
0.48715869724823718
41
1.5707963267948966
42
1.5715142086148859
0
ELLIPSE
5
127
100
AcDbEntity
8
0
100
AcDbEllipse
10
10.250000152736902
20
0
30
0
11
-1.0430812835693359e-07
21
1.0000000149011612
31
0.0
40
0.51284130275175543
41
1.8234774176644435
42
4.4597076849854798
0
ELLIPSE
5
128
100
AcDbEntity
8
0
100
AcDbEllipse
10
10.250000152736902
20
0
30
0
11
-1.0430812835693359e-07
21
1.0000000149011612
31
0.0
40
0.51284130275175543
41
4.7119625110544536
42
4.7123888760765631
0
LINE
5
129
100
AcDbEntity
8
0
100
AcDbLine
10
10.746556509042547
20
-0.25000095915494569
30
0
11
10.778310920704822
21
-0.25000096217479706
31
0
0
LINE
5
130
100
AcDbEntity
8
0
100
AcDbLine
10
10.74655659711909
20
0.25000000372529074
30
0
11
10.778310828648763
21
0.2500000037252908
31
0
0
LINE
5
131
100
AcDbEntity
8
0
100
AcDbLine
10
9.7058122256234931
20
-0.25000086017994422
30
0
11
9.7534438223626019
21
-0.25000086470971905
31
0
0
LINE
5
132
100
AcDbEntity
8
0
100
AcDbLine
10
9.7058122031564231
20
0.25000094310469823
30
0
11
9.7534437949638448
21
0.25000094807306039
31
0
0
LINE
5
133
100
AcDbEntity
8
0
100
AcDbLine
10
7.7465564550882915
20
0.25000073873840123
30
0
11
7.7941880054596595
21
0.25000074370675907
31
0
0
LINE
5
134
100
AcDbEntity
8
0
100
AcDbLine
10
7.7465565021172775
20
-0.25000067385431035
30
0
11
7.7941879901408049
21
-0.25000067838407491
31
0
0
LINE
5
135
100
AcDbEntity
8
0
100
AcDbLine
10
6.7213621032447133
20
0.2500006318022987
30
0
11
6.7534437088243395
21
0.25000063514867099
31
0
0
LINE
5
136
100
AcDbEntity
8
0
100
AcDbLine
10
6.7221519652639365
20
-0.25000057643322227
30
0
11
6.7534437398808738
21
-0.25000057940907661
31
0
0
LINE
5
137
100
AcDbEntity
8
0
100
AcDbLine
10
5.7349894918534536
20
-0.25000048255386215
30
0
11
5.7827695151587744
21
-0.25000048709775252
31
0
0
LINE
5
138
100
AcDbEntity
8
0
100
AcDbLine
10
5.7349894806691406
20
0.25000052891561819
30
0
11
5.7819796662221554
21
0.25000053381707632
31
0
0
LINE
5
139
100
AcDbEntity
8
0
100
AcDbLine
10
3.7341229135030005
20
0.25000032020897461
30
0
11
3.7820214307819016
21
0.25000032520517923
31
0
0
LINE
5
140
100
AcDbEntity
8
0
100
AcDbLine
10
3.7341229562253737
20
-0.25000029227103121
30
0
11
3.7820214225055064
21
-0.25000029682618552
31
0
0
LINE
5
141
100
AcDbEntity
8
0
100
AcDbLine
10
0.69999993592500687
20
0.2500000037252903
30
0
11
1.7658770940678532
21
0.25000000372529035
31
0
0
LINE
5
142
100
AcDbEntity
8
0
100
AcDbLine
10
2.7341229176559239
20
0.25000021590084831
30
0
11
2.765877131200428
21
0.25000021921307075
31
0
0
LINE
5
143
100
AcDbEntity
8
0
100
AcDbLine
10
0.6999999382269857
20
-0.2500000037252903
30
0
11
1.765877135093723
21
-0.25000010509043724
31
0
0
LINE
5
144
100
AcDbEntity
8
0
100
AcDbLine
10
2.7341229480136628
20
-0.25000019717081889
30
0
11
2.7658771678602223
21
-0.25000020019065183
31
0
0
LINE
5
145
100
AcDbEntity
8
0
100
AcDbLine
10
-2.0835680850067155
20
3.1088451438426739
30
0
11
-2.107517347973006
21
3.1503264741117079
31
0
0
ELLIPSE
5
146
100
AcDbEntity
8
0
100
AcDbEllipse
10
-1.6250000242143863
20
2.8145826042399746
30
0
11
-0.86602536453515877
21
-0.5000000977840694
31
0.0
40
0.49999999999999534
41
1.570796326794897
42
1.5715145794572525
0
ELLIPSE
5
147
100
AcDbEntity
8
0
100
AcDbEllipse
10
-5.1250000763684485
20
8.8767605210645346
30
0
11
-0.86602536453515877
21
-0.5000000977840694
31
0.0
40
0.51284130275175543
41
4.7119625110544519
42
4.7123888760765613
0
ELLIPSE
5
148
100
AcDbEntity
8
0
100
AcDbEllipse
10
-3.1260329091891217
20
5.4144478248479082
30
0
11
-0.86499250191216526
21
-0.50178906832433479
31
0.0
40
0.48509322946503786
41
4.7072128596644731
42
4.7124305261750559
0
ELLIPSE
5
149
100
AcDbEntity
8
0
100
AcDbEllipse
10
-5.1250000763684485
20
8.8767605210645346
30
0
11
-0.86602536453515877
21
-0.5000000977840694
31
0.0
40
0.51284130275175599
41
4.9650691820331021
42
7.601300350020594
0
ELLIPSE
5
150
100
AcDbEntity
8
0
100
AcDbEllipse
10
-4.3750000651925784
20
7.5777223960307012
30
0
11
-0.86602536453515877
21
-0.5000000977840694
31
0.0
40
0.98715869724823535
41
4.7118711188060285
42
4.7123888239225007
0
ELLIPSE
5
151
100
AcDbEntity
8
0
100
AcDbEllipse
10
-4.3750000651925784
20
7.5777223960307012
30
0
11
-0.86602536453515877
21
-0.5000000977840694
31
0.0
40
0.98715869724823535
41
1.5707963267948963
42
1.5718676447761841
0
LINE
5
152
100
AcDbEntity
8
0
100
AcDbLine
10
-4.089785218256476
20
6.5837143125875883
30
0
11
-4.113600997744884
21
6.6249644427466521
31
0
0
ELLIPSE
5
153
100
AcDbEntity
8
0
100
AcDbEllipse
10
-5.6250000838190291
20
9.7427859377537587
30
0
11
-0.86602536453515877
21
-0.5000000977840694
31
0.0
40
0.48715869724823724
41
1.570796326794897
42
1.5715142086148863
0
ELLIPSE
5
154
100
AcDbEntity
8
0
100
AcDbEllipse
10
-3.6250000540167076
20
6.2786842709968669
30
0
11
-0.86602536453515877
21
-0.5000000977840694
31
0.0
40
0.5128413027517611
41
1.569727514330721
42
1.5750227029213688
0
LINE
5
155
100
AcDbEntity
8
0
100
AcDbLine
10
-5.5897846527318489
20
9.1817910144497397
30
0
11
-5.6056617684966854
21
9.209290985632089
31
0
0
ELLIPSE
5
156
100
AcDbEntity
8
0
100
AcDbEllipse
10
-4.3750000651925784
20
7.5777223960307012
30
0
11
-0.86602536453515877
21
-0.5000000977840694
31
0.0
40
0.98715869724823535
41
4.9650701027450816
42
7.6013005116140926
0
ELLIPSE
5
157
100
AcDbEntity
8
0
100
AcDbEllipse
10
-3.6250000540167076
20
6.2786842709968669
30
0
11
-0.86602536453515877
21
-0.5000000977840694
31
0.0
40
0.5128413027517611
41
4.7117597888415039
42
4.7123888239224998
0
ELLIPSE
5
158
100
AcDbEntity
8
0
100
AcDbEllipse
10
-3.6250000540167076
20
6.2786842709968669
30
0
11
-0.86602536453515877
21
-0.5000000977840694
31
0.0
40
0.5128413027517611
41
4.9650699411515919
42
7.6013006732075796
0
ELLIPSE
5
159
100
AcDbEntity
8
0
100
AcDbEllipse
10
-5.1250000763684485
20
8.8767605210645346
30
0
11
-0.86602536453515877
21
-0.5000000977840694
31
0.0
40
0.51284130275175543
41
1.5707963267948961
42
1.5715117019295646
0
LINE
5
160
100
AcDbEntity
8
0
100
AcDbLine
10
-3.5771879497253058
20
5.6958700135427778
30
0
11
-3.5932287554131626
21
5.7236534972957411
31
0
0
LINE
5
161
100
AcDbEntity
8
0
100
AcDbLine
10
-5.0694132692769465
20
8.280479460742125
30
0
11
-5.0932290694833853
21
8.3217296267858618
31
0
0
LINE
5
162
100
AcDbEntity
8
0
100
AcDbLine
10
-3.0840015493350403
20
4.841646316238192
30
0
11
-3.1074966463563349
21
4.8823410082049188
31
0
0
LINE
5
163
100
AcDbEntity
8
0
100
AcDbLine
10
-1.5835679967496903
20
2.2428197958088352
30
0
11
-1.5994451063904112
21
2.2703197497594605
31
0
0
ELLIPSE
5
164
100
AcDbEntity
8
0
100
AcDbEllipse
10
-3.1260329091891217
20
5.4144478248479082
30
0
11
-0.86499250191216492
21
-0.50178906832433456
31
0.0
40
0.48509322946503797
41
1.5611919233778984
42
1.5762124183908319
0
ELLIPSE
5
165
100
AcDbEntity
8
0
100
AcDbEllipse
10
-1.1250000167638059
20
1.9485571875507517
30
0
11
-0.86602537943631996
21
-0.50000007197450103
31
0.0
40
0.499999999999998
41
4.7119698354831474
42
4.7123888909777234
0
LINE
5
166
100
AcDbEntity
8
0
100
AcDbLine
10
-0.566506322134809
20
0.4812177252958903
30
0
11
-1.099444901206232
21
1.4042944215611588
31
0
0
ELLIPSE
5
167
100
AcDbEntity
8
0
100
AcDbEllipse
10
-3.1260329091891217
20
5.4144478248479082
30
0
11
-0.86499250191216503
21
-0.50178906832433467
31
0.0
40
0.48509322946503791
41
4.9640676349747839
42
7.6002988414239683
0
ELLIPSE
5
168
100
AcDbEntity
8
0
100
AcDbEllipse
10
-2.3792527409012978
20
4.1209866312885604
30
0
11
0.50425311431864983
21
-0.8733918034839866
31
0.0
40
0.99160157708368513
41
3.1351779257868069
42
3.1501237461994833
0
ELLIPSE
5
169
100
AcDbEntity
8
0
100
AcDbEllipse
10
-1.6250000242143863
20
2.8145826042399746
30
0
11
-0.86602536453515877
21
-0.5000000977840694
31
0.0
40
0.49999999999999545
41
4.9650695102356561
42
7.6013011041235155
0
ELLIPSE
5
170
100
AcDbEntity
8
0
100
AcDbEllipse
10
-1.1250000167638059
20
1.9485571875507517
30
0
11
-0.86602537943631996
21
-0.50000007197450103
31
0.0
40
0.49999999999999789
41
4.9650694174078422
42
7.6013013415795019
0
LINE
5
171
100
AcDbEntity
8
0
100
AcDbLine
10
-2.8834853205950091
20
4.9943432097469582
30
0
11
-2.8835057071354395
21
4.9943785202691808
31
0
0
ELLIPSE
5
172
100
AcDbEntity
8
0
100
AcDbEllipse
10
-2.3792527409012978
20
4.1209866312885604
30
0
11
0.50425311431864972
21
-0.87339180348398648
31
0.0
40
0.99160157708368535
41
3.3942640069086316
42
6.0305139538607486
0
LINE
5
173
100
AcDbEntity
8
0
100
AcDbLine
10
-3.6567713165375761
20
6.8337150596122411
30
0
11
-3.6805870566264485
21
6.8749651405255516
31
0
0
LINE
5
174
100
AcDbEntity
8
0
100
AcDbLine
10
-3.1445691324800431
20
5.9465546582346711
30
0
11
-3.1602150172113461
21
5.9736541314703633
31
0
0
LINE
5
175
100
AcDbEntity
8
0
100
AcDbLine
10
-1.150554952305783
20
2.4928200286352418
30
0
11
-1.1664320596138107
21
2.520319991209635
31
0
0
LINE
5
176
100
AcDbEntity
8
0
100
AcDbLine
10
-1.6505548740524385
20
3.3588454870813371
30
0
11
-1.6745041032476256
21
3.4003267779598216
31
0
0
LINE
5
177
100
AcDbEntity
8
0
100
AcDbLine
10
-0.13349361494118694
20
0.73121773101475251
30
0
11
-0.66643212558976295
21
1.6542945114984682
31
0
0
ELLIPSE
5
178
100
AcDbEntity
8
0
100
AcDbEllipse
10
-2.3792527409012978
20
4.1209866312885604
30
0
11
0.50425311431864983
21
-0.8733918034839866
31
0.0
40
0.99160157708368513
41
0.25267111362712824
42
2.8889211377681887
0
ELLIPSE
5
179
100
AcDbEntity
8
0
100
AcDbEllipse
10
-1.6250000242143863
20
2.8145826042399746
30
0
11
-0.86602536453515877
21
-0.5000000977840694
31
0.0
40
0.49999999999999545
41
1.8234767326914674
42
4.4597083750797815
0
ELLIPSE
5
180
100
AcDbEntity
8
0
100
AcDbEllipse
10
-3.1260329091891217
20
5.4144478248479082
30
0
11
-0.86499250191216526
21
-0.50178906832433479
31
0.0
40
0.48509322946503786
41
1.8224748319348396
42
4.458706143820427
0
ARC
5
181
100
AcDbEntity
8
0
100
AcDbCircle
10
-0.34999996796250327
20
0.60621772715853539
30
0
40
0.2500000037252903
210
0
220
0
230
1
100
AcDbArc
50
-150.00000000000003
51
30.000000527574638
0
CIRCLE
5
182
100
AcDbEntity
8
0
100
AcDbCircle
10
-0.34999996796250327
20
0.60621772715853539
30
0
40
0.24999983422458169
210
0
220
0
230
1
0
LINE
5
183
100
AcDbEntity
8
0
100
AcDbLine
10
-2.6509879770767126
20
5.0916468316588315
30
0
11
-2.6748779847942483
21
5.1330255479065974
31
0
0
ELLIPSE
5
184
100
AcDbEntity
8
0
100
AcDbEllipse
10
-5.6250000838190291
20
9.7427859377537587
30
0
11
-0.86602513529918457
21
-0.49999996543458608
31
0.0
40
0.4871587642774588
41
1.8234775543107431
42
7.6013012596729252
0
ELLIPSE
5
185
100
AcDbEntity
8
0
100
AcDbEllipse
10
-1.1250000167638059
20
1.9485571875507517
30
0
11
-0.86602537943631996
21
-0.50000007197450103
31
0.0
40
0.499999999999998
41
1.8234766493735464
42
4.4597084882000235
0
ELLIPSE
5
186
100
AcDbEntity
8
0
100
AcDbEllipse
10
-5.1250000763684485
20
8.8767605210645346
30
0
11
-0.86602536453515877
21
-0.5000000977840694
31
0.0
40
0.51284130275175543
41
1.8234774176644442
42
4.4597076849854798
0
LINE
5
187
100
AcDbEntity
8
0
100
AcDbLine
10
-4.6363990169279514
20
8.5304803818415014
30
0
11
-4.6602148113746056
21
8.5717305569052726
31
0
0
ELLIPSE
5
188
100
AcDbEntity
8
0
100
AcDbEllipse
10
-3.6250000540167076
20
6.2786842709968669
30
0
11
-0.86602536453515877
21
-0.5000000977840694
31
0.0
40
0.5128413027517611
41
1.8234771230071543
42
4.4597079796427685
0
LINE
5
189
100
AcDbEntity
8
0
100
AcDbLine
10
-5.1567710729226119
20
9.431791419613333
30
0
11
-5.1726482761384815
21
9.4592915483050195
31
0
0
ELLIPSE
5
190
100
AcDbEntity
8
0
100
AcDbEllipse
10
-4.3750000651925784
20
7.5777223960307012
30
0
11
-0.86602536453515877
21
-0.5000000977840694
31
0.0
40
0.98715869724823535
41
1.8234771757529475
42
4.4597077377312875
0
LINE
5
191
100
AcDbEntity
8
0
100
AcDbLine
10
-1.650554828496285
20
-3.358845464051647
30
0
11
-1.6745040828088955
21
-3.4003267993168853
31
0
0
ELLIPSE
5
192
100
AcDbEntity
8
0
100
AcDbEllipse
10
-1.6250000242143876
20
-2.8145826042399733
30
0
11
0.86602546884328691
21
-0.49999991711709196
31
0.0
40
0.49999999999999523
41
1.570796326794897
42
1.5715145794572527
0
ELLIPSE
5
193
100
AcDbEntity
8
0
100
AcDbEllipse
10
-5.1250000763684538
20
-8.8767605210645311
30
0
11
0.86602546884328691
21
-0.49999991711709196
31
0.0
40
0.51284130275175532
41
4.7119625110544536
42
4.7123888760765631
0
ELLIPSE
5
194
100
AcDbEntity
8
0
100
AcDbEllipse
10
-3.1260329091891244
20
-5.4144478248479055
30
0
11
0.86705833146628175
21
-0.4982109465768273
31
0.0
40
0.48509322946503791
41
4.7072128596644731
42
4.7124305261750568
0
ELLIPSE
5
195
100
AcDbEntity
8
0
100
AcDbEllipse
10
-5.1250000763684538
20
-8.8767605210645311
30
0
11
0.86602546884328691
21
-0.49999991711709196
31
0.0
40
0.51284130275175599
41
4.9650691820331021
42
7.6013003500205958
0
ELLIPSE
5
196
100
AcDbEntity
8
0
100
AcDbEllipse
10
-4.375000065192582
20
-7.5777223960306967
30
0
11
0.86602546884328691
21
-0.49999991711709196
31
0.0
40
0.98715869724823513
41
4.7118711188060267
42
4.7123888239224998
0
ELLIPSE
5
197
100
AcDbEntity
8
0
100
AcDbEllipse
10
-4.375000065192582
20
-7.5777223960306967
30
0
11
0.86602546884328691
21
-0.49999991711709196
31
0.0
40
0.98715869724823513
41
1.5707963267948972
42
1.5718676447761841
0
LINE
5
198
100
AcDbEntity
8
0
100
AcDbLine
10
-3.6567712368318155
20
-6.8337150513259859
30
0
11
-3.6805870077147755
21
-6.8749651864534069
31
0
0
ELLIPSE
5
199
100
AcDbEntity
8
0
100
AcDbEllipse
10
-5.6250000838190344
20
-9.7427859377537533
30
0
11
0.86602546884328691
21
-0.49999991711709196
31
0.0
40
0.48715869724823718
41
1.5707963267948979
42
1.5715142086148863
0
ELLIPSE
5
200
100
AcDbEntity
8
0
100
AcDbEllipse
10
-3.6250000540167111
20
-6.2786842709968633
30
0
11
0.86602546884328691
21
-0.49999991711709196
31
0.0
40
0.5128413027517611
41
1.5697275143307219
42
1.5750227029213693
0
LINE
5
201
100
AcDbEntity
8
0
100
AcDbLine
10
-5.1567719443872413
20
-9.4317910181750246
30
0
11
-5.1726490601520778
21
-9.459290989357374
31
0
0
ELLIPSE
5
202
100
AcDbEntity
8
0
100
AcDbEllipse
10
-4.375000065192582
20
-7.5777223960306967
30
0
11
0.86602546884328691
21
-0.49999991711709196
31
0.0
40
0.98715869724823513
41
4.9650701027450808
42
7.6013005116140926
0
ELLIPSE
5
203
100
AcDbEntity
8
0
100
AcDbEllipse
10
-3.6250000540167111
20
-6.2786842709968633
30
0
11
0.86602546884328691
21
-0.49999991711709196
31
0.0
40
0.5128413027517611
41
4.711759788841503
42
4.7123888239224989
0
ELLIPSE
5
204
100
AcDbEntity
8
0
100
AcDbEllipse
10
-3.6250000540167111
20
-6.2786842709968633
30
0
11
0.86602546884328691
21
-0.49999991711709196
31
0.0
40
0.5128413027517611
41
4.9650699411515919
42
7.6013006732075805
0
ELLIPSE
5
205
100
AcDbEntity
8
0
100
AcDbEllipse
10
-5.1250000763684538
20
-8.8767605210645311
30
0
11
0.86602546884328691
21
-0.49999991711709196
31
0.0
40
0.51284130275175532
41
1.5707963267948961
42
1.5715117019295637
0
LINE
5
206
100
AcDbEntity
8
0
100
AcDbLine
10
-3.1441741535194074
20
-5.9458706453450745
30
0
11
-3.1602149534111774
21
-5.973654132444409
31
0
0
LINE
5
207
100
AcDbEntity
8
0
100
AcDbLine
10
-4.6363989338794767
20
-8.5304804038468198
30
0
11
-4.6602147254804596
21
-8.5717305748589201
31
0
0
LINE
5
208
100
AcDbEntity
8
0
100
AcDbLine
10
-2.6509879313341003
20
-5.0916468451538082
30
0
11
-2.6744830198658205
21
-5.132341542021992
31
0
0
LINE
5
209
100
AcDbEntity
8
0
100
AcDbLine
10
-1.1505549209062336
20
-2.4928200117096821
30
0
11
-1.1664320248100171
21
-2.52031996897253
31
0
0
ELLIPSE
5
210
100
AcDbEntity
8
0
100
AcDbEllipse
10
-3.1260329091891244
20
-5.4144478248479055
30
0
11
0.86705833146628142
21
-0.49821094657682707
31
0.0
40
0.48509322946503802
41
1.5611919233778975
42
1.5762124183908319
0
ELLIPSE
5
211
100
AcDbEntity
8
0
100
AcDbEllipse
10
-1.1250000167638068
20
-1.9485571875507506
30
0
11
0.86602545394212549
21
-0.49999994292666011
31
0.0
40
0.49999999999999789
41
4.7119698354831474
42
4.7123888909777243
0
LINE
5
212
100
AcDbEntity
8
0
100
AcDbLine
10
-0.13349361379019797
20
-0.73121772902118032
30
0
11
-0.66643219286162136
21
-1.6542944252864484
31
0
0
ELLIPSE
5
213
100
AcDbEntity
8
0
100
AcDbEllipse
10
-3.1260329091891244
20
-5.4144478248479055
30
0
11
0.86705833146628142
21
-0.49821094657682718
31
0.0
40
0.48509322946503797
41
4.9640676349747856
42
7.6002988414239692
0
ELLIPSE
5
214
100
AcDbEntity
8
0
100
AcDbEllipse
10
-2.3792527409012996
20
-4.1209866312885577
30
0
11
0.50425293211491351
21
0.87339190867936234
31
0.0
40
0.99160157708368535
41
3.135177925786806
42
3.1501237461994824
0
ELLIPSE
5
215
100
AcDbEntity
8
0
100
AcDbEllipse
10
-1.6250000242143876
20
-2.8145826042399733
30
0
11
0.86602546884328691
21
-0.49999991711709196
31
0.0
40
0.49999999999999534
41
4.965069510235657
42
7.6013011041235163
0
ELLIPSE
5
216
100
AcDbEntity
8
0
100
AcDbEllipse
10
-1.1250000167638068
20
-1.9485571875507506
30
0
11
0.86602545394212549
21
-0.49999994292666011
31
0.0
40
0.49999999999999778
41
4.9650694174078431
42
7.6013013415795019
0
LINE
5
217
100
AcDbEntity
8
0
100
AcDbLine
10
-2.8834854345616736
20
-4.9943431439482717
30
0
11
-2.8835058211007247
21
-4.9943784544712919
31
0
0
ELLIPSE
5
218
100
AcDbEntity
8
0
100
AcDbEllipse
10
-2.3792527409012996
20
-4.1209866312885577
30
0
11
0.5042529321149134
21
0.87339190867936212
31
0.0
40
0.99160157708368557
41
3.3942640069086307
42
6.0305139538607486
0
LINE
5
219
100
AcDbEntity
8
0
100
AcDbLine
10
-4.0897851855797009
20
-6.5837143857579266
30
0
11
-4.1136009335143564
21
-6.6249644621414738
31
0
0
LINE
5
220
100
AcDbEntity
8
0
100
AcDbLine
10
-3.5775828327838934
20
-5.6965540818014455
30
0
11
-3.5932287226695272
21
-5.7236535520612826
31
0
0
LINE
5
221
100
AcDbEntity
8
0
100
AcDbLine
10
-1.5835679957078796
20
-2.2428198314644217
30
0
11
-1.5994451082464116
21
-2.2703197910189821
31
0
0
LINE
5
222
100
AcDbEntity
8
0
100
AcDbLine
10
-2.0835680821729352
20
-3.1088451948103044
30
0
11
-2.1075173192578807
21
-3.1503264811336344
31
0
0
LINE
5
223
100
AcDbEntity
8
0
100
AcDbLine
10
-0.56650632328579864
20
-0.48121772728946205
30
0
11
-1.0994450095039598
21
-1.40429440640803
31
0
0
ELLIPSE
5
224
100
AcDbEntity
8
0
100
AcDbEllipse
10
-2.3792527409012996
20
-4.1209866312885577
30
0
11
0.50425293211491351
21
0.87339190867936234
31
0.0
40
0.99160157708368535
41
0.25267111362712824
42
2.8889211377681887
0
ELLIPSE
5
225
100
AcDbEntity
8
0
100
AcDbEllipse
10
-1.6250000242143876
20
-2.8145826042399733
30
0
11
0.86602546884328691
21
-0.49999991711709196
31
0.0
40
0.49999999999999534
41
1.8234767326914669
42
4.4597083750797806
0
ELLIPSE
5
226
100
AcDbEntity
8
0
100
AcDbEllipse
10
-3.1260329091891244
20
-5.4144478248479055
30
0
11
0.86705833146628175
21
-0.4982109465768273
31
0.0
40
0.48509322946503791
41
1.8224748319348396
42
4.4587061438204287
0
ARC
5
227
100
AcDbEntity
8
0
100
AcDbCircle
10
-0.3499999679625036
20
-0.60621772715853506
30
0
40
0.2500000037252903
210
0
220
0
230
1
100
AcDbArc
50
-30.000000000000014
51
150.00000052757468
0
CIRCLE
5
228
100
AcDbEntity
8
0
100
AcDbCircle
10
-0.3499999679625036
20
-0.60621772715853506
30
0
40
0.24999983422458169
210
0
220
0
230
1
0
LINE
5
229
100
AcDbEntity
8
0
100
AcDbLine
10
-3.084001514776741
20
-4.8416463491049671
30
0
11
-3.107891530364526
21
-4.8830250608088424
31
0
0
ELLIPSE
5
230
100
AcDbEntity
8
0
100
AcDbEllipse
10
-5.6250000838190344
20
-9.7427859377537533
30
0
11
0.86602523960728495
21
-0.49999978476765633
31
0.0
40
0.48715876427745869
41
1.8234775543107431
42
7.6013012596729288
0
ELLIPSE
5
231
100
AcDbEntity
8
0
100
AcDbEllipse
10
-1.1250000167638068
20
-1.9485571875507506
30
0
11
0.86602545394212549
21
-0.49999994292666011
31
0.0
40
0.49999999999999789
41
1.8234766493735461
42
4.4597084882000235
0
ELLIPSE
5
232
100
AcDbEntity
8
0
100
AcDbEllipse
10
-5.1250000763684538
20
-8.8767605210645311
30
0
11
0.86602546884328691
21
-0.49999991711709196
31
0.0
40
0.51284130275175532
41
1.8234774176644433
42
4.4597076849854789
0
LINE
5
233
100
AcDbEntity
8
0
100
AcDbLine
10
-5.0694132086955417
20
-8.280479521661551
30
0
11
-5.0932290109879963
21
-8.3217296921955484
31
0
0
ELLIPSE
5
234
100
AcDbEntity
8
0
100
AcDbEllipse
10
-3.6250000540167111
20
-6.2786842709968633
30
0
11
0.86602546884328691
21
-0.49999991711709196
31
0.0
40
0.5128413027517611
41
1.8234771230071538
42
4.4597079796427685
0
LINE
5
235
100
AcDbEntity
8
0
100
AcDbLine
10
-5.5897854361199348
20
-9.1817904604583838
30
0
11
-5.6056626445663404
21
-9.2092905861302157
31
0
0
ELLIPSE
5
236
100
AcDbEntity
8
0
100
AcDbEllipse
10
-4.375000065192582
20
-7.5777223960306967
30
0
11
0.86602546884328691
21
-0.49999991711709196
31
0.0
40
0.98715869724823513
41
1.8234771757529482
42
4.4597077377312857
0
ARC
5
237
100
AcDbEntity
8
0
100
AcDbCircle
10
12.10000015646219
20
-1.6000000298023203
30
0
40
0.40000000000000213
210
-0
220
0
230
1
100
AcDbArc
50
270.00000000000023
51
360
0
LINE
5
238
100
AcDbEntity
8
0
100
AcDbLine
10
12.000000208616257
20
-2.0000000298023224
30
0
11
12.100000156462192
21
-2.0000000298023224
31
0
0
LINE
5
239
100
AcDbEntity
8
0
100
AcDbLine
10
11.500000171363354
20
-2.0000000298023224
30
0
11
11.500000171363354
21
-1.5000000223517418
31
0
0
LINE
5
240
100
AcDbEntity
8
0
100
AcDbLine
10
11.500000171363354
20
-1.5000000223517418
30
0
11
11.900000003918219
21
-1.500000006678875
31
0
0
ARC
5
241
100
AcDbEntity
8
0
100
AcDbCircle
10
11.900000000000002
20
-1.4000000066788771
30
0
40
0.099999999999997952
210
-0
220
0
230
1
100
AcDbArc
50
-89.99999775502711
51
0
0
ARC
5
242
100
AcDbEntity
8
0
100
AcDbCircle
10
11.9
20
1.399999997239342
30
0
40
0.099999999999999645
210
-0
220
0
230
1
100
AcDbArc
50
0
51
90
0
LINE
5
243
100
AcDbEntity
8
0
100
AcDbLine
10
11.9
20
1.4999999972393421
30
0
11
11.500000171363354
21
1.4999999972393421
31
0
0
LINE
5
244
100
AcDbEntity
8
0
100
AcDbLine
10
11.500000171363354
20
1.4999999972393421
30
0
11
11.500000171363354
21
1.9999999972393436
31
0
0
LINE
5
245
100
AcDbEntity
8
0
100
AcDbLine
10
12.10102495974459
20
1.9999999972393434
30
0
11
12.000000208616257
21
1.9999999972393434
31
0
0
ARC
5
246
100
AcDbEntity
8
0
100
AcDbCircle
10
12.10102495974459
20
1.6011959112474279
30
0
40
0.39880408599191419
210
-0
220
0
230
1
100
AcDbArc
50
0
51
90
0
LINE
5
247
100
AcDbEntity
8
0
100
AcDbLine
10
12.499829045736504
20
0.49999999723934213
30
0
11
12.500000156462193
21
-0.5000000074505806
31
0
0
LINE
5
248
100
AcDbEntity
8
0
100
AcDbLine
10
12.499829045736504
20
0.49999999723934213
30
0
11
12.499829045736504
21
1.6011959112474277
31
0
0
LINE
5
249
100
AcDbEntity
8
0
100
AcDbLine
10
12.500000156462193
20
-1.6000000298023225
30
0
11
12.500000156462193
21
-0.5000000074505806
31
0
0
LINE
5
250
100
AcDbEntity
8
0
100
AcDbLine
10
11.500000171363354
20
1.9999999972393436
30
0
11
12.000000208616257
21
1.9999999972393434
31
0
0
LINE
5
251
100
AcDbEntity
8
0
100
AcDbLine
10
11.500000171363354
20
-2.0000000298023224
30
0
11
12.000000208616257
21
-2.0000000298023224
31
0
0
LINE
5
252
100
AcDbEntity
8
0
100
AcDbLine
10
10.74655659711909
20
0.25000000372529074
30
0
11
10.778310828648763
21
0.2500000037252908
31
0
0
LINE
5
253
100
AcDbEntity
8
0
100
AcDbLine
10
11.721689466850449
20
0.25000000372529074
30
0
11
12.000000178813934
21
0.25000000372529074
31
0
0
LINE
5
254
100
AcDbEntity
8
0
100
AcDbLine
10
10.746556509042547
20
-0.25000095915494569
30
0
11
10.778310920704822
21
-0.25000096217479706
31
0
0
LINE
5
255
100
AcDbEntity
8
0
100
AcDbLine
10
11.721689386449295
20
-0.25000095915494569
30
0
11
12
21
-0.25000095915494569
31
0
0
ELLIPSE
5
256
100
AcDbEntity
8
0
100
AcDbEllipse
10
11.250000167638063
20
0
30
0
11
-1.0430810074668521e-07
21
0.99999975020224241
31
0.0
40
0.4871587642774588
41
1.8234775543107427
42
4.4597076193191132
0
ELLIPSE
5
257
100
AcDbEntity
8
0
100
AcDbEllipse
10
11.250000167638063
20
0
30
0
11
-1.0430810074668521e-07
21
0.99999975020224241
31
0.0
40
0.4871587642774588
41
4.965069253057135
42
7.601301259672927
0
LINE
5
258
100
AcDbEntity
8
0
100
AcDbLine
10
12
20
-1.400000006678876
30
0
11
12
21
-0.25000095915494569
31
0
0
LINE
5
259
100
AcDbEntity
8
0
100
AcDbLine
10
12.000000178813934
20
0.25000000372529074
30
0
11
12
21
1.3999999972393415
31
0
0
CIRCLE
5
260
100
AcDbEntity
8
0
100
AcDbCircle
10
2.0000000298023224
20
-6.5000000968575478
30
0
40
0.25
210
0
220
0
230
1
0
CIRCLE
5
261
100
AcDbEntity
8
0
100
AcDbCircle
10
0.69999993592500687
20
0
30
0
40
0.24999983422458169
210
0
220
-0
230
1
0
ENDSEC
0
SECTION
2
OBJECTS
0
DICTIONARY
5
C
100
AcDbDictionary
3
ACAD_GROUP
350
D
3
ACAD_MLINESTYLE
350
17
0
DICTIONARY
5
D
100
AcDbDictionary
0
DICTIONARY
5
1A
330
C
100
AcDbDictionary
0
DICTIONARY
5
17
100
AcDbDictionary
0
ENDSEC
0
EOF
